<svg id="圖層_1" data-name="圖層 1" xmlns="http://www.w3.org/2000/svg" viewBox="0 0 301.02 508"><defs><style>.cls-1{fill:#dc552c;}.cls-2{fill:#de572d;}.cls-3{fill:#eec854;}</style></defs><title>banner</title><path class="cls-1" d="M579.28,266.81l-58.17-87.74-.78-15.87,16.16-13.1L552,154.64l.08.06,75.08,70.44-47.86,41.67Zm-57.35-88,57.52,86.77,46.45-40.45-74.35-69.73L536.66,151l-15.49,12.56.74,15.2Z" transform="translate(-378.05 -118.5)"/><path class="cls-1" d="M572.14,174,537.42,203l.53.65,34.72-28.95Z" transform="translate(-378.05 -118.5)"/><path class="cls-1" d="M596.53,196.92l-40.59,34,.53.64,40.59-34Z" transform="translate(-378.05 -118.5)"/><path class="cls-1" d="M620.08,219,574,258.18l.53.63,46.07-39.17Z" transform="translate(-378.05 -118.5)"/><path class="cls-1" d="M551.51,154.67,521.26,178.6l.52.65L552,155.33Z" transform="translate(-378.05 -118.5)"/><path class="cls-1" d="M619.24,226.1l-.63.55,2.58,2.95.63-.55Z" transform="translate(-378.05 -118.5)"/><path class="cls-1" d="M616.09,228.83l-.62.55,2.58,3,.62-.55Z" transform="translate(-378.05 -118.5)"/><path class="cls-1" d="M613,231.54l-.63.54,2.58,3,.63-.55Z" transform="translate(-378.05 -118.5)"/><path class="cls-1" d="M609.81,234.26l-.62.54,2.58,3,.62-.55Z" transform="translate(-378.05 -118.5)"/><path class="cls-1" d="M606.66,237l-.62.55,2.58,3,.62-.55Z" transform="translate(-378.05 -118.5)"/><path class="cls-1" d="M603.52,239.65l-.63.55,2.58,3,.63-.55Z" transform="translate(-378.05 -118.5)"/><path class="cls-1" d="M600.39,242.39l-.63.55,2.58,2.95.63-.54Z" transform="translate(-378.05 -118.5)"/><path class="cls-1" d="M597.24,245.1l-.63.55,2.58,2.95.63-.55Z" transform="translate(-378.05 -118.5)"/><path class="cls-1" d="M594.1,247.81l-.62.55,2.58,2.95.62-.55Z" transform="translate(-378.05 -118.5)"/><path class="cls-1" d="M591,250.54l-.63.54,2.58,3,.63-.56Z" transform="translate(-378.05 -118.5)"/><path class="cls-1" d="M587.82,253.24l-.63.55,2.58,3,.63-.55Z" transform="translate(-378.05 -118.5)"/><path class="cls-1" d="M584.68,256l-.63.55,2.58,2.95.63-.55Z" transform="translate(-378.05 -118.5)"/><path class="cls-1" d="M581.53,258.67l-.63.55,2.58,2.95.63-.55Z" transform="translate(-378.05 -118.5)"/><path class="cls-2" d="M571.72,199.34a6.11,6.11,0,0,1-9.37,7.85c-2.16-2.59-1.81-11.73-1.81-11.73S569.56,196.75,571.72,199.34Z" transform="translate(-378.05 -118.5)"/><path class="cls-1" d="M567,209.8a6.46,6.46,0,0,1-5-2.35c-2.23-2.69-1.92-11.63-1.9-12l0-.46.45.07c.38,0,9.21,1.34,11.45,4a6.53,6.53,0,0,1-5,10.73Zm-6.1-13.86c0,1.88,0,8.86,1.73,11a5.7,5.7,0,1,0,8.74-7.31c-1.76-2.12-8.62-3.37-10.46-3.67Z" transform="translate(-378.05 -118.5)"/><path class="cls-2" d="M523.3,139.11c-1.5-2.05-8.8-4-11.47-8.81-2.43-4.36-3.4-9.4-8.41-10.1a10,10,0,0,0-11,8,9.8,9.8,0,0,0,8.35,11.39c2,.27,3.8-1.47,5.58-.92,4,1.24,4.4,7.15,5.56,8.74,2.62,3.59,7.28,4.64,10.42,2.34s3.57-7.08.95-10.68Z" transform="translate(-378.05 -118.5)"/><path class="cls-2" d="M518.55,151.42a8.28,8.28,0,0,1-1.7-.19,9,9,0,0,1-5.26-3.54,10.14,10.14,0,0,1-1-2.43c-.74-2.25-1.75-5.35-4.33-6.15a4.2,4.2,0,0,0-2.59.39,6.35,6.35,0,0,1-2.93.54,10.22,10.22,0,0,1-8.7-11.88,10.27,10.27,0,0,1,11.44-8.38c4.1.58,5.63,3.86,7.25,7.34.45,1,.93,2,1.47,3,1.6,2.87,5,4.72,7.68,6.2a12.41,12.41,0,0,1,3.76,2.57c2.75,3.77,2.28,8.81-1,11.24a6.74,6.74,0,0,1-4,1.3Zm-12.93-13.24a3,3,0,0,1,.88.13c3,.93,4.08,4.25,4.87,6.68a10,10,0,0,0,.89,2.2A8.1,8.1,0,0,0,517,150.4a6.18,6.18,0,0,0,5.07-1c2.95-2.16,3.33-6.69.86-10.09a12.56,12.56,0,0,0-3.49-2.33c-2.8-1.53-6.29-3.44-8-6.52-.55-1-1-2-1.49-3-1.59-3.4-3-6.35-6.61-6.85a9.43,9.43,0,0,0-10.51,7.7,9.33,9.33,0,0,0,1.69,7.16,9.21,9.21,0,0,0,6.3,3.74,5.53,5.53,0,0,0,2.53-.5,6.9,6.9,0,0,1,2.25-.53Z" transform="translate(-378.05 -118.5)"/><path class="cls-3" d="M516.21,148l6.26-5a3,3,0,0,1,4.16.46l7.49,9.36-10.88,8.76-7.49-9.35A3,3,0,0,1,516.21,148Z" transform="translate(-378.05 -118.5)"/><path class="cls-1" d="M523.18,162.07l-7.75-9.68a3.4,3.4,0,0,1,.53-4.77l6.25-5a3.37,3.37,0,0,1,4.75.52l7.75,9.68Zm-.45-18.83-6.26,5a2.55,2.55,0,0,0-.39,3.59l7.23,9,10.23-8.24-7.22-9a2.54,2.54,0,0,0-3.58-.39Z" transform="translate(-378.05 -118.5)"/><path class="cls-1" d="M536.36,530a124.77,124.77,0,0,1-13.52-.8c-31.67-3.41-48.15-31-51.14-36.5-4.15-7.64-3.78-19.93-3.44-31.81a155.11,155.11,0,0,0-.05-16.49c-1.18-14.63,0-20.95,0-21.22l.08-.37.33-.19a62.13,62.13,0,0,0,6.33-4.39,80.33,80.33,0,0,0,21.59-25.12l1.62-3.05-.06,3.47c0,1.19-.28,28.45,23.45,31.44-6.62-10.3-4.07-30.61-4-30.82l.73-5.29.91,5.27c0,.26,4.74,25.46,33.52,32.35-10-14-7.89-22.74-7.79-23.13l.49-1.9,1,1.68c.16.27,16.32,26.37,37.62,30.21-2.43-3.85-8-13.81-5.64-20.61l.7-2,.84,2c.07.18,7.91,18.42,14.36,23l.23.17.09.27a110.08,110.08,0,0,0,8.77,20.56c9.54-8.47,16.07-6.81,16.34-6.74,0,0,11.82,2.2,11.82,14.9s-4.25,18.36-12.63,26c-7.41,6.78-18.49,4.78-21.2,4.16C579.05,523.48,557,530,536.36,530ZM469.79,423.87c-.21,1.52-.94,7.95.07,20.4a158.43,158.43,0,0,1,.06,16.67c-.35,11.66-.7,23.72,3.23,31,2.91,5.37,19,32.32,49.87,35.65,23.85,2.57,51.25.55,73.63-33.91l.33-.51.58.16c.13,0,12.6,3.35,20.23-3.63,8.2-7.5,12.09-13.12,12.09-24.79s-10.09-13.19-10.52-13.27c-.13,0-6.41-1.53-15.63,7l-.77.71-.52-.9a112,112,0,0,1-9.36-21.55c-5.37-4.05-11.24-16-13.61-21.15-.45,7.64,6.86,18.1,6.94,18.22l1.08,1.52-1.85-.21C566,433,550.83,412.7,546.32,406.06c0,3.55,1.28,11.05,9,21.19l1.34,1.75-2.16-.43c-24-4.78-32.78-21.58-35.69-29.71-.35,6.94-.22,20.12,5.15,26.57l1.24,1.5-1.94-.14c-22.12-1.54-26-22.49-26.67-30.35A83.14,83.14,0,0,1,476,419.54a63.62,63.62,0,0,1-6.18,4.3Z" transform="translate(-378.05 -118.5)"/><path class="cls-1" d="M526.27,538.21c-19.28-.81-31.43-7.7-36.21-11l2.28,6.26h-1.19c-.19,0-17.28-.38-28-19.75.15,3.26,1.22,8.85,6,14.91l1,1.21-1.53.14c-.29,0-7.25.57-15.06-6.79-.45-.4-10.66-9.79-6.74-30.57-3.27,6.11-7.6,18.06.08,29.5l1.33,2-2.27-.72a40.23,40.23,0,0,1-11-5.83c-5.3-4.07-8.18-19-3.82-27.57a89.12,89.12,0,0,1,11.18-16.07c.22-.23,19.66-20.27,18.58-28.93a3.39,3.39,0,0,0-1.66-2.63,19.83,19.83,0,0,1-6.11-6.13A29.23,29.23,0,0,1,451.77,407a84.89,84.89,0,0,1,9-14c12.17-15.53,41.44-19.77,42.68-19.95l1-.14-.1,1c0,.12-.35,14,46.32,18.73,40.43,4.13,66.8,1.13,82.95-9.45a4.3,4.3,0,0,1,5.54.78c4,4.56,13.68,16.11,15.73,24.64.62,2.58,1.94,7.31,3.61,13.31,5.21,18.75,14,50.12,14,61.64h-1.66c0-11.28-8.7-42.53-13.89-61.19-1.67-6-3-10.77-3.62-13.37-2-8.16-11.39-19.44-15.35-23.93a2.64,2.64,0,0,0-3.39-.49c-16.5,10.8-43.2,13.88-84,9.71-41.86-4.28-47.12-15.92-47.74-19.51-5,.84-30.12,5.65-40.72,19.19a83.73,83.73,0,0,0-8.83,13.68,27.53,27.53,0,0,0,1.22,27.58,18.1,18.1,0,0,0,5.6,5.63,5.06,5.06,0,0,1,2.45,3.85c1.18,9.45-18.2,29.43-19,30.27-.05.05-7,7.93-10.92,15.68s-1.28,21.94,3.35,25.49a38,38,0,0,0,8.28,4.71c-9.16-16.59,3.73-33.32,3.86-33.5l2.54-3.23-1.08,4c-6.35,23.15,5,33.68,5.13,33.79,5.06,4.77,9.74,6,12.13,6.28-6.76-9.5-5.2-17.47-5.13-17.82l.51-2.4,1.05,2.22c8.57,17.91,22.52,20.94,26.71,21.46l-3.5-9.63,2.44,2.14c.13.11,13.15,11.31,37.49,12.34l-.07,1.67Z" transform="translate(-378.05 -118.5)"/><path class="cls-1" d="M594.55,534.5v-1.66c.21,0,21.89-.22,31.25-17l1.1-2,.44,2.2c0,.27,1.11,6.13-6.12,14.51l11-2.3c12.93-2.69,21-26.56,21.1-26.8l1.15-3.44.46,3.59c.08.65,1.9,15.29-4.08,24.88,1.41,0,4.38-.55,9.51-3.85C677,512,670.9,484.06,670.84,483.78l1.62-.36c.26,1.19,6.39,29.35-11.2,40.68-8.54,5.51-11.85,4-12.2,3.78l-.82-.45.55-.77c4.51-6.28,4.92-15.8,4.76-21-2.88,7-10.2,22.06-21,24.31l-16.23,3.38,1.91-2c5-5.1,6.69-9.31,7.25-11.94-10.52,14.87-30.74,15-31,15Z" transform="translate(-378.05 -118.5)"/><path class="cls-1" d="M526.72,550.07l-1.5-.71c3.11-6.68-.6-20.38-.64-20.51l1.6-.44C526.34,529,530.1,542.83,526.72,550.07Z" transform="translate(-378.05 -118.5)"/><path class="cls-1" d="M515.18,546l-.24-1.65a33.28,33.28,0,0,0,11.91-3.92l.88,1.41A34.21,34.21,0,0,1,515.17,546Z" transform="translate(-378.05 -118.5)"/><path class="cls-1" d="M447,619.79l-1.65-.15c0-.21,2.17-22.1,20.8-45.71s47.69-30.51,48-30.58l.25-.06,1.47.6,0,.51c0,.1.85,10.1,8.79,16.89,5.8,5,13.9,7,24.08,6.18,27.29-2.32,48.29-21.5,53.21-26.36-14-3.5-15.24-32.81-15.29-34.1l1.66-.07c0,.32,1.36,31.39,15.41,32.8l1.65.16-1.13,1.23c-.23.25-23.59,25.3-55.38,28-10.65.9-19.16-1.3-25.32-6.58a28.4,28.4,0,0,1-9.29-17.5h0c-2.85.71-29.45,7.9-46.81,29.92C449.13,598.17,447,619.56,447,619.78Z" transform="translate(-378.05 -118.5)"/><path class="cls-1" d="M677.41,615c-3.52-31.93-20.13-46.87-31.12-56.76-.56-.5-1.11-1-1.63-1.47-9.89-9-35.61-15.74-39.37-16.69l-1,1.06L603.08,540l1.68-1.75.46.11c1.21.3,29.62,7.27,40.56,17.18.52.48,1.07,1,1.63,1.47,11.18,10.06,28.07,25.26,31.66,57.82l-1.65.18Z" transform="translate(-378.05 -118.5)"/><path class="cls-1" d="M474.15,618.23,472.5,618c2.09-14.32,8.06-29.42,8.12-29.57l1.54.62c-.06.15-6,15.06-8,29.19Z" transform="translate(-378.05 -118.5)"/><path class="cls-1" d="M614.09,626.5l-1.62-.38c1.76-7.48,5.53-31.87,5.57-32.12l1.64.25C619.64,594.5,615.87,619,614.09,626.5Z" transform="translate(-378.05 -118.5)"/><path class="cls-1" d="M495.56,464c3,0,5.46-4,5.46-8.84s-2.45-8.84-5.46-8.84-5.46,4-5.46,8.84S492.54,464,495.56,464Z" transform="translate(-378.05 -118.5)"/><path class="cls-1" d="M573.2,488.41c7,0,12.69-2.79,12.69-6.22S580.21,476,573.2,476s-12.68,2.79-12.68,6.23S566.2,488.41,573.2,488.41Z" transform="translate(-378.05 -118.5)"/><path class="cls-1" d="M553.46,469.31c3,0,5.46-4,5.46-8.84s-2.45-8.84-5.46-8.84-5.46,4-5.46,8.84S550.45,469.31,553.46,469.31Z" transform="translate(-378.05 -118.5)"/><path class="cls-1" d="M478.55,428.08,477.26,427c.22-.28,5.65-6.84,12.43-7.42a11.06,11.06,0,0,1,8.43,3L497,423.83a9.42,9.42,0,0,0-7.19-2.56c-6.08.51-11.25,6.74-11.3,6.81Z" transform="translate(-378.05 -118.5)"/><path class="cls-1" d="M565.12,435c-2.59-5.07-6.07-8.32-10.33-9.66-6.77-2.13-13.28,1.28-13.34,1.32l-.78-1.48c.29-.15,7.19-3.77,14.62-1.44,4.71,1.48,8.51,5,11.31,10.49l-1.48.76Z" transform="translate(-378.05 -118.5)"/><path class="cls-1" d="M511.61,479.05c-3.19-2.14-4.81-4.52-4.82-7.08,0-4,3.89-6.77,4.06-6.89l.95,1.37s-3.38,2.4-3.35,5.51c0,2,1.39,3.89,4.09,5.7l-.93,1.38Z" transform="translate(-378.05 -118.5)"/><path class="cls-1" d="M522.12,502.39c-12.82,0-20-9.91-20.14-10.06l1.35-1c.56.78,13.88,19,37.25,2.66l.95,1.37C534.11,500.58,527.6,502.39,522.12,502.39Z" transform="translate(-378.05 -118.5)"/><path class="cls-1" d="M499.54,451.08c0-.09-2.81-9.58-9.35-8.91s-6.29,8.33-6.28,8.66l-1.66.06c-.11-3.3,1.37-9.72,7.77-10.37,7.93-.81,11,9.67,11.11,10.12l-1.59.46Z" transform="translate(-378.05 -118.5)"/><path class="cls-1" d="M557.44,456.42c0-.09-2.83-9.59-9.35-8.91s-6.28,8.33-6.28,8.66l-1.66.06c-.11-3.3,1.36-9.72,7.77-10.37,7.91-.82,11,9.67,11.11,10.12l-1.59.46Z" transform="translate(-378.05 -118.5)"/><path class="cls-1" d="M606.08,386.94a42,42,0,0,1-12.75-2.17c-11.86-3.84-20-11.5-18.24-17.08l12.32-68.52,61.65,20-31,62.53c-1.09,3.42-5.76,5.26-12,5.26Zm-18-86.68L575.89,367.9c-1.67,5.19,6.27,12.39,17.69,16.08s22,2.53,23.7-2.61l30.6-61.73Z" transform="translate(-378.05 -118.5)"/><path class="cls-1" d="M629.08,341.37a99.45,99.45,0,0,1-36.43-8.61c-3.3-1.61-7.13-4-6.61-6.17s5-2.54,8.69-2.48a88.38,88.38,0,0,1,18.18,2.65c12.34,3,24.94,8.23,24,12.1-.43,1.77-3.48,2.5-7.85,2.5ZM594,324.94c-4.2,0-6.84.68-7.12,1.85s2,3.19,6.17,5.23a87,87,0,0,0,17.23,5.87c14.51,3.5,25.28,3.22,25.86.79s-8.88-7.6-23.4-11.1a87.46,87.46,0,0,0-18-2.63H594Z" transform="translate(-378.05 -118.5)"/><path class="cls-1" d="M589.45,355.63a3.06,3.06,0,0,1-1.07-.19,3.33,3.33,0,0,1-.4-6.14,3.32,3.32,0,0,1,4.44,1.52,3.34,3.34,0,0,1,.17,2.54,3.28,3.28,0,0,1-1.68,1.92,3.4,3.4,0,0,1-1.46.34Zm0-5.83a2.49,2.49,0,0,0-1.1.25,2.44,2.44,0,0,0-1.25,1.44,2.5,2.5,0,0,0,1.55,3.16,2.48,2.48,0,0,0,3.16-1.56,2.5,2.5,0,0,0-1.56-3.16A2.44,2.44,0,0,0,589.45,349.8Z" transform="translate(-378.05 -118.5)"/><path class="cls-1" d="M598.68,380a3.25,3.25,0,0,1-1.07-.18,3.33,3.33,0,0,1-2.08-4.22,3.33,3.33,0,0,1,4.21-2.09,3.35,3.35,0,0,1,2.08,4.23,3.3,3.3,0,0,1-1.68,1.91A3.33,3.33,0,0,1,598.68,380Zm0-5.84a2.5,2.5,0,0,0-1.1.26,2.41,2.41,0,0,0-1.25,1.44,2.49,2.49,0,0,0,1.55,3.16,2.42,2.42,0,0,0,1.9-.12,2.5,2.5,0,0,0-.3-4.61,2.45,2.45,0,0,0-.8-.14Z" transform="translate(-378.05 -118.5)"/><path class="cls-1" d="M625.38,358.18a3.06,3.06,0,0,1-1.07-.19,3.27,3.27,0,0,1-1.91-1.68,3.34,3.34,0,0,1-.17-2.54,3.32,3.32,0,0,1,6.12-.4,3.33,3.33,0,0,1-1.51,4.46,3.4,3.4,0,0,1-1.46.34Zm0-5.84a2.54,2.54,0,0,0-1.1.26A2.47,2.47,0,0,0,623,354a2.49,2.49,0,1,0,4.71,1.6,2.42,2.42,0,0,0-.13-1.9,2.45,2.45,0,0,0-1.42-1.26A2.56,2.56,0,0,0,625.38,352.34Z" transform="translate(-378.05 -118.5)"/><path class="cls-1" d="M583.39,371.06a3.32,3.32,0,0,1-3-1.87,3.3,3.3,0,0,1-.16-2.54,3.33,3.33,0,0,1,1.67-1.92,3.33,3.33,0,0,1,2.94,6,3.47,3.47,0,0,1-1.47.34Zm0-5.83a2.49,2.49,0,1,0,2.35,3.29,2.42,2.42,0,0,0-.12-1.9,2.47,2.47,0,0,0-1.43-1.26A2.44,2.44,0,0,0,583.39,365.23Z" transform="translate(-378.05 -118.5)"/><path class="cls-3" d="M648.32,319.66c1.73-5.37-10.45-14.12-27.21-19.54s-31.73-5.47-33.46-.1,10.45,14.12,27.21,19.54S646.59,325,648.32,319.66Z" transform="translate(-378.05 -118.5)"/><path class="cls-1" d="M637.37,324.1h-.14c-6.36,0-14.35-1.49-22.49-4.13-17.23-5.58-29.3-14.39-27.48-20.07.89-2.76,4.93-4.28,11.37-4.28h.13c6.36,0,14.35,1.48,22.49,4.12s15.48,6.14,20.65,9.86,7.73,7.43,6.83,10.22S643.8,324.1,637.37,324.1Zm-38.74-27.65c-6,0-9.81,1.35-10.57,3.71-1.63,5.06,10.72,13.76,27,19,8.06,2.61,16,4.06,22.24,4.09h.12c6,0,9.82-1.35,10.58-3.71s-1.61-5.76-6.52-9.29c-5.11-3.66-12.36-7.12-20.43-9.74s-16-4-22.24-4.08Z" transform="translate(-378.05 -118.5)"/><path class="cls-1" d="M607.11,372a12,12,0,0,1-3.87-1.23,19.51,19.51,0,0,1-2.66-1.48c-.65-.45-1.28-1-1-1.51l22.17-46.62,8.66,1.68L607.9,371.61C607.78,371.86,607.5,372,607.11,372Zm-6.76-4a11,11,0,0,0,3.24,2,10.59,10.59,0,0,0,3.61,1.17l22-47.73-7-1.35Z" transform="translate(-378.05 -118.5)"/><path class="cls-1" d="M632.81,316.46a4.28,4.28,0,0,1-1.16-.23,20.18,20.18,0,0,1-2.81-1.11c-4.18-1.93-3.86-2.63-3.75-2.86l18.71-40.63,8.35,3.87-18.71,40.63a.62.62,0,0,1-.64.33Zm-6.89-4a13.62,13.62,0,0,0,3.27,1.91,13.26,13.26,0,0,0,3.57,1.26l18.29-39.72-6.84-3.17Z" transform="translate(-378.05 -118.5)"/><path class="cls-3" d="M651.62,275.72c.14-.31-1.45-1.34-3.55-2.31s-3.91-1.52-4.06-1.21,1.45,1.34,3.55,2.31S651.47,276,651.62,275.72Z" transform="translate(-378.05 -118.5)"/><path class="cls-1" d="M651.34,276.2a11.3,11.3,0,0,1-4-1.32c-4.17-1.93-3.85-2.63-3.74-2.87s.43-.93,4.6,1a24.28,24.28,0,0,1,2.67,1.43c.8.53,1.29,1,1.08,1.44-.05.11-.15.31-.65.31Zm-6.27-3.52a21.17,21.17,0,0,0,2.65,1.44,19.17,19.17,0,0,0,2.82,1.09,22.58,22.58,0,0,0-2.65-1.44A19.17,19.17,0,0,0,645.07,272.68Z" transform="translate(-378.05 -118.5)"/><path class="cls-3" d="M603.3,361.08a2.92,2.92,0,1,0-2.9-2.92A2.91,2.91,0,0,0,603.3,361.08Z" transform="translate(-378.05 -118.5)"/><path class="cls-1" d="M603.3,361.49a3.34,3.34,0,0,1-1.07-.18,3.27,3.27,0,0,1-1.91-1.68,3.32,3.32,0,0,1-.16-2.55,3.28,3.28,0,0,1,1.67-1.91,3.32,3.32,0,0,1,4.61,4.06,3.32,3.32,0,0,1-3.14,2.25Zm0-5.83a2.36,2.36,0,0,0-1.09.26,2.47,2.47,0,0,0-1.26,1.43,2.53,2.53,0,0,0,.13,1.91,2.44,2.44,0,0,0,1.43,1.26,2.46,2.46,0,0,0,1.9-.13,2.42,2.42,0,0,0,1.25-1.43,2.48,2.48,0,0,0-2.36-3.3Z" transform="translate(-378.05 -118.5)"/><path class="cls-1" d="M578.65,321.18a6.86,6.86,0,0,1-1.56-.19l-47.82-11.9a6.48,6.48,0,0,1-4.72-7.84l8.91-36a6.45,6.45,0,0,1,7.82-4.72L589.1,272.4a6.49,6.49,0,0,1,4.71,7.85l-8.9,36a6.47,6.47,0,0,1-6.26,4.93Zm-38.93-60a5.64,5.64,0,0,0-5.45,4.28l-8.9,36a5.64,5.64,0,0,0,4.1,6.84l47.82,11.9a5.55,5.55,0,0,0,4.26-.64,5.63,5.63,0,0,0,2.56-3.47l8.9-36a5.66,5.66,0,0,0-4.1-6.85l-47.82-11.89a5.28,5.28,0,0,0-1.36-.17Z" transform="translate(-378.05 -118.5)"/><path class="cls-1" d="M532.9,272.33l-.2.81,58.83,14.63.2-.81Z" transform="translate(-378.05 -118.5)"/><path class="cls-1" d="M536.64,267.06l-.2.81,9.29,2.31.2-.81Z" transform="translate(-378.05 -118.5)"/><path class="cls-1" d="M581.05,278.09l-.2.81,9.28,2.31.2-.81Z" transform="translate(-378.05 -118.5)"/><path class="cls-3" d="M567.14,292.53l-2.75-4.92L604.7,266.3l2.24,4-38.56,22.56a.91.91,0,0,1-1.25-.34Z" transform="translate(-378.05 -118.5)"/><path class="cls-1" d="M567.94,293.42a1.34,1.34,0,0,1-.35-.05,1.3,1.3,0,0,1-.81-.64l-3-5.29,41-21.7,2.64,4.73-38.9,22.76a1.33,1.33,0,0,1-.67.19Zm-3-5.63,2.54,4.54a.52.52,0,0,0,.3.23.53.53,0,0,0,.39-.05l38.19-22.35-1.84-3.3L565,287.78Z" transform="translate(-378.05 -118.5)"/><path class="cls-1" d="M563.09,295a12.79,12.79,0,0,1-3.63-.54l-.36-.12.08-.37c0-.18,1.09-4.55,4.44-6.43l.58-.31.36-.17,3.58,6.42-.34.21c-.18.12-.37.22-.56.33a8.41,8.41,0,0,1-4.15,1Zm-3-1.23c1.08.28,4.26.9,6.74-.49a1.18,1.18,0,0,0,.19-.11l-2.81-5-.2.11c-2.48,1.4-3.59,4.44-3.92,5.51Z" transform="translate(-378.05 -118.5)"/><path class="cls-1" d="M559.38,293.74l-3.23,1.81.41.73,3.23-1.81Z" transform="translate(-378.05 -118.5)"/><path class="cls-1" d="M576.91,284.17l-5.88,3.3.41.72,5.88-3.3Z" transform="translate(-378.05 -118.5)"/><path class="cls-1" d="M539.58,297.67c-.87-.85-.09-2.33.9-2.71,1.39-.54,3,.47,4,1.34,2,1.73,3.56,4.07,6,5.23,1.9.91,4.44,1.14,6-.57a3.59,3.59,0,0,0,.19-4.88.52.52,0,0,0-.73.74,2.38,2.38,0,0,1,.1,3,3.2,3.2,0,0,1-3.12,1.35c-2.9-.28-4.82-2.82-6.74-4.73-1.53-1.52-4-3.49-6.26-2.38-1.56.75-2.4,3-1,4.32.48.46,1.21-.27.73-.74Z" transform="translate(-378.05 -118.5)"/><path class="cls-3" d="M561.46,360.7a8.66,8.66,0,0,0-13.91.17,8.65,8.65,0,0,0-13.79,10.45,8.51,8.51,0,0,0-2.1,1.16,8.67,8.67,0,0,0,7.86,15.18,8.64,8.64,0,0,0,17.28-.34,8.67,8.67,0,0,0,5-16.6A8.72,8.72,0,0,0,561.46,360.7Z" transform="translate(-378.05 -118.5)"/><path class="cls-1" d="M548.17,396.4a9,9,0,0,1-9-8.19,9.09,9.09,0,0,1-7.73-16,9.55,9.55,0,0,1,1.72-1,9.07,9.07,0,0,1,14.42-10.93,9.06,9.06,0,0,1,14.85,10.3,8.92,8.92,0,0,1,3.94,3,9.11,9.11,0,0,1-1.74,12.73,8.93,8.93,0,0,1-7.4,1.64,9.06,9.06,0,0,1-9,8.55Zm-8.26-9.3,0,.55a8.22,8.22,0,0,0,16.44-.33v-.55l.53.15a8.19,8.19,0,0,0,7.19-1.36,8.26,8.26,0,0,0-2.43-14.44l-.53-.16.3-.46a8.24,8.24,0,0,0-13.55-9.37l-.32.45-.34-.44a8.24,8.24,0,0,0-13.14,9.94l.32.44-.51.2a8.47,8.47,0,0,0-2,1.11,8.25,8.25,0,0,0,7.48,14.44l.52-.17Z" transform="translate(-378.05 -118.5)"/><path class="cls-3" d="M547.84,381.55a6,6,0,1,0-5.94-6A5.94,5.94,0,0,0,547.84,381.55Z" transform="translate(-378.05 -118.5)"/><path class="cls-1" d="M547.84,382a6.38,6.38,0,1,1,3.83-1.3,6.36,6.36,0,0,1-3.83,1.3Zm0-11.93a5.55,5.55,0,0,0-5.47,4.79,5.53,5.53,0,1,0,5.47-4.78Z" transform="translate(-378.05 -118.5)"/><path class="cls-1" d="M453.4,285a6.38,6.38,0,1,1,.85-12.7,6.38,6.38,0,0,1-.85,12.7Zm0-11.92a5.53,5.53,0,0,0-5.46,4.79,5.53,5.53,0,0,0,8.81,5.18,5.56,5.56,0,0,0-2.59-9.92,6.64,6.64,0,0,0-.77-.05Z" transform="translate(-378.05 -118.5)"/><path class="cls-1" d="M453.74,299.43a9.06,9.06,0,0,1-9-8.21A9.09,9.09,0,0,1,437,275.17a8.59,8.59,0,0,1,1.71-1,9.07,9.07,0,0,1,14.42-10.94,8.74,8.74,0,0,1,1.54-1.5,9,9,0,0,1,12.7,1.75,9.15,9.15,0,0,1,.62,10.05,8.93,8.93,0,0,1,3.93,3,9.07,9.07,0,0,1-9.14,14.37,9,9,0,0,1-3.57,6.72,8.9,8.9,0,0,1-5.45,1.85Zm-8.27-9.31,0,.55a8.22,8.22,0,0,0,16.44-.32v-.55l.53.15a8.25,8.25,0,0,0,4.75-15.8l-.53-.16.3-.46a8.29,8.29,0,0,0-.3-9.53,8.22,8.22,0,0,0-11.54-1.59,8.07,8.07,0,0,0-1.7,1.75l-.33.45-.34-.45a8.24,8.24,0,0,0-13.13,9.95l.32.44-.51.2a8.24,8.24,0,0,0,5.48,15.54l.52-.16Z" transform="translate(-378.05 -118.5)"/><path class="cls-1" d="M651.14,371.73a4.76,4.76,0,1,1,4.71-4.12,4.83,4.83,0,0,1-1.84,3.16A4.72,4.72,0,0,1,651.14,371.73Zm0-8.71a3.93,3.93,0,0,0-3.12,6.32,3.93,3.93,0,0,0,6.26-4.76,3.86,3.86,0,0,0-2.6-1.52l-.54,0Z" transform="translate(-378.05 -118.5)"/><path class="cls-1" d="M651.38,382.3a6.75,6.75,0,0,1-6.7-6,6.75,6.75,0,0,1-5.62-12,6.85,6.85,0,0,1,1.15-.71,6.74,6.74,0,0,1,10.7-8.11,6.88,6.88,0,0,1,1.07-1,6.74,6.74,0,0,1,10,8.65,6.76,6.76,0,0,1,1.51,11.64,6.63,6.63,0,0,1-5.37,1.24,6.73,6.73,0,0,1-6.71,6.23Zm-5.93-7.08,0,.55a5.91,5.91,0,0,0,11.81-.23V375l.53.15a5.85,5.85,0,0,0,5.15-1,6,6,0,0,0,1.14-8.31,5.87,5.87,0,0,0-2.89-2.05l-.52-.17.3-.45a5.92,5.92,0,0,0-8.51-8,6.07,6.07,0,0,0-1.22,1.26l-.32.45-.34-.44a5.91,5.91,0,0,0-9.42,7.14l.31.43-.5.2a5.68,5.68,0,0,0-1.43.8,5.92,5.92,0,0,0,5.36,10.37l.53-.17Z" transform="translate(-378.05 -118.5)"/><path class="cls-1" d="M425.3,387a6.31,6.31,0,0,1-1.36-.16,5.84,5.84,0,0,1-3.66-2.65,5.92,5.92,0,0,1,1.9-8.13,5.87,5.87,0,0,1,8.12,1.9,5.92,5.92,0,0,1-5,9Zm0-11a5,5,0,0,0-2.66.77,5.09,5.09,0,0,0-1.62,7,5.06,5.06,0,0,0,8.59-5.36,5,5,0,0,0-3.15-2.26,4.6,4.6,0,0,0-1.16-.14Z" transform="translate(-378.05 -118.5)"/><path class="cls-1" d="M424.6,400.31a8.39,8.39,0,0,1-8.4-8.34,8.42,8.42,0,0,1-4.08-16.25,8.48,8.48,0,0,1,3-11,8.39,8.39,0,0,1,11.19,2.19,8.54,8.54,0,0,1,1.53-1.22,8.39,8.39,0,0,1,11.56,2.72,8.45,8.45,0,0,1-.28,9.28,8.3,8.3,0,0,1,3.34,3.07,8.44,8.44,0,0,1-2.7,11.59,8.3,8.3,0,0,1-6.93.87,8.38,8.38,0,0,1-8.26,7.11ZM417.07,391l0,.55a7.57,7.57,0,0,0,11.54,6.85,7.52,7.52,0,0,0,3.53-5.74l0-.55.51.2a7.44,7.44,0,0,0,6.68-.63,7.58,7.58,0,0,0-1-13.41l-.5-.21.34-.43a7.62,7.62,0,0,0,.53-8.75,7.55,7.55,0,0,0-10.41-2.44,7.69,7.69,0,0,0-1.71,1.45l-.36.42-.3-.47a7.57,7.57,0,0,0-12.86,8l.28.46-.53.15a7.9,7.9,0,0,0-1.92.85,7.62,7.62,0,0,0-2.43,10.45,7.54,7.54,0,0,0,8,3.39L417,391Z" transform="translate(-378.05 -118.5)"/><path class="cls-1" d="M417.77,330.64a6,6,0,1,1,6-6A6,6,0,0,1,417.77,330.64Zm0-11.1a5.14,5.14,0,1,0,5.12,5.13A5.13,5.13,0,0,0,417.77,319.54Z" transform="translate(-378.05 -118.5)"/><path class="cls-1" d="M495.93,291.16a4.65,4.65,0,1,1,4.64-4.65A4.64,4.64,0,0,1,495.93,291.16Zm0-8.47a3.82,3.82,0,1,0,3.81,3.81A3.81,3.81,0,0,0,495.93,282.69Z" transform="translate(-378.05 -118.5)"/><path class="cls-1" d="M616.25,292.53a3.4,3.4,0,1,1,3.39-3.4A3.4,3.4,0,0,1,616.25,292.53Zm0-6a2.57,2.57,0,1,0,2.56,2.57A2.57,2.57,0,0,0,616.25,286.57Z" transform="translate(-378.05 -118.5)"/><path class="cls-1" d="M421.9,354.62A18.47,18.47,0,0,1,411.83,352c-6.32-4.11-8-12.52-8.08-12.87l-.07-.39.39-.09c.35-.09,8.69-2,15,2.17s8,12.52,8.07,12.87l.08.4-.4.09a23.48,23.48,0,0,1-4.92.49Zm-17.24-15.3c.42,1.73,2.37,8.51,7.61,11.93s12.22,2.46,14,2.14c-.43-1.72-2.38-8.5-7.62-11.93S406.4,339,404.66,339.32Z" transform="translate(-378.05 -118.5)"/><path class="cls-1" d="M471.51,302.92l-.09-.39c-.08-.35-1.93-8.73,2.17-15.06s12.48-8,12.83-8.1l.39-.07.09.39c.09.35,1.94,8.72-2.16,15.05s-12.49,8-12.84,8.1Zm14.66-22.64c-1.72.42-8.48,2.38-11.89,7.64s-2.45,12.26-2.14,14c1.72-.43,8.48-2.39,11.9-7.64S486.49,282,486.17,280.28Z" transform="translate(-378.05 -118.5)"/><path class="cls-1" d="M411.28,209.76a1,1,0,1,0-1-1A1,1,0,0,0,411.28,209.76Z" transform="translate(-378.05 -118.5)"/><path class="cls-1" d="M426.08,212.12a1,1,0,1,0-1-1A1,1,0,0,0,426.08,212.12Z" transform="translate(-378.05 -118.5)"/><path class="cls-1" d="M418.49,212.18l-2.9.7.2.81,2.9-.7Z" transform="translate(-378.05 -118.5)"/><path class="cls-1" d="M418.51,212.2l-.5.67,2.39,1.78.5-.67Z" transform="translate(-378.05 -118.5)"/><path class="cls-1" d="M515.58,293.08l-.55-.49c-50.9-46.51-124.58-47.92-125.31-47.92l-10.21-.18a1.47,1.47,0,0,1-.83-2.68l18.05-9.56,11.53-41.95a1.2,1.2,0,0,1,2.34.25,12.8,12.8,0,0,0,.42,2.1,13.4,13.4,0,0,0,11.11,9.56,13.23,13.23,0,0,0,13.48-7.08,1.2,1.2,0,0,1,1.37-.63,1.18,1.18,0,0,1,.92,1.14l.58,20.63c5,1.19,9.87,2.54,14.6,4,20.81,6.46,39.36,15.51,55.11,26.91a27.44,27.44,0,0,1,8.17,9.47,16.64,16.64,0,0,0,9.12-10.16c1.27-4.37.33-9.07-2.71-13.59-2.11-3.14-2.77-6.22-1.95-9.17,1.58-5.61,8-9.09,10.72-10.32a2.48,2.48,0,0,1,3.5,2,2.43,2.43,0,0,1-1.16,2.33c-2.86,1.76-6.44,4.7-7.29,8.65-.55,2.54.12,5.21,2,7.95,4.48,6.67,3.74,12.25,2.32,15.76a18.27,18.27,0,0,1-12.81,10.52,27.73,27.73,0,0,1,1,13.85l-3.47,18.58ZM409.4,190.31a.34.34,0,0,0-.34.24l-11.62,42.27-18.32,9.7a.61.61,0,0,0-.2.69.64.64,0,0,0,.6.46l10.21.17c.74,0,74.2,1.41,125.31,47.63l3.19-17.11a26.68,26.68,0,0,0-1.1-13.88L517,260l.47-.1a17.48,17.48,0,0,0,12.67-10.11c1.35-3.32,2-8.62-2.23-15-2-2.93-2.68-5.83-2.09-8.6.92-4.24,4.67-7.33,7.67-9.18a1.59,1.59,0,0,0,.76-1.54,1.64,1.64,0,0,0-2.32-1.36c-2,.93-8.74,4.36-10.26,9.79-.76,2.69-.14,5.55,1.83,8.48,3.18,4.72,4.16,9.66,2.82,14.29a17.6,17.6,0,0,1-9.94,10.85l-.36.15-.17-.35a26.64,26.64,0,0,0-8.1-9.52c-15.69-11.35-34.16-20.36-54.88-26.8C448,219.56,443,218.2,438,217l-.31-.08-.59-21.27a.34.34,0,0,0-.28-.35.38.38,0,0,0-.44.21A14,14,0,0,1,422.05,203a14.22,14.22,0,0,1-11.81-10.16,14.69,14.69,0,0,1-.45-2.23.37.37,0,0,0-.33-.34h0Z" transform="translate(-378.05 -118.5)"/><path class="cls-3" d="M420.59,237l-18.17,9.62a1.06,1.06,0,0,0,.59,1.93l24.95.85" transform="translate(-378.05 -118.5)"/><path class="cls-1" d="M427.94,249.78,403,248.94a1.48,1.48,0,0,1-.83-2.68l18.22-9.64.39.73L402.61,247a.66.66,0,0,0,.41,1.15L428,249l0,.83Z" transform="translate(-378.05 -118.5)"/><path class="cls-3" d="M512.51,274.27l6.86,19.42a1.06,1.06,0,0,1-1.74,1l-19.37-15.92" transform="translate(-378.05 -118.5)"/><path class="cls-1" d="M518.33,295.4a1.44,1.44,0,0,1-1-.38L498,279.1l.53-.64,19.36,15.93a.65.65,0,0,0,1.08-.61L512.1,274.4l.78-.27,6.87,19.42a1.48,1.48,0,0,1-.69,1.64,1.47,1.47,0,0,1-.75.21Z" transform="translate(-378.05 -118.5)"/><path class="cls-1" d="M639,233.66a.5.5,0,0,0,.45-.25q1.17-3.49,3.41-10a.25.25,0,0,0-.17-.36c-3-1-6.18-2.12-9.44-3.34a.5.5,0,0,1-.33-.72c.13-.35.35-.46.67-.35q4.89,1.83,9.44,3.34c.21.08.35,0,.41-.14q.89-2.54,2.77-7.66a.59.59,0,0,1,1.1.41c-1.25,3.38-2.18,5.92-2.76,7.6,0,.14,0,.26.17.36Q655,226,668,229.13c.34.05.48.27.4.68s-.26.48-.63.42q-13.14-3.18-23.48-6.62c-.18-.06-.3,0-.38.22q-2.21,6.25-3.26,9.44c-.07.21,0,.31.23.32a31.15,31.15,0,0,1,10.72,2.15q7.51,2.81,10.77,7.84a11.3,11.3,0,0,1,1.2,10.62,12.88,12.88,0,0,1-7.46,7.63c-3.66,1.53-8.08,1.88-13.25,1a.51.51,0,0,1-.46-.67.54.54,0,0,1,.72-.49q7.33,1.19,12.46-.88a11.73,11.73,0,0,0,7-7,10.16,10.16,0,0,0-.11-7.72,15.2,15.2,0,0,0-5.76-6.56.32.32,0,0,0-.5.05A49.71,49.71,0,0,1,639,251.41q-9.21,3.61-14.42,1.67a5.88,5.88,0,0,1-3.69-3.34,7.22,7.22,0,0,1,.18-5.29,15.09,15.09,0,0,1,6.52-7.51,23.17,23.17,0,0,1,11.43-3.3Zm-.07,1.34c.05-.14,0-.21-.23-.2a22.33,22.33,0,0,0-10.55,3.12,13.81,13.81,0,0,0-6,6.94,6.09,6.09,0,0,0-.21,4.41A4.92,4.92,0,0,0,625,252q3.07,1.16,8.16.07a.54.54,0,0,0,.43-.38q3.18-10.19,5.36-16.7Zm1.57-.25a.35.35,0,0,0-.37.22q-2.88,8.57-5.3,16.36a.15.15,0,0,0,0,.14.18.18,0,0,0,.18.06,41.17,41.17,0,0,0,10.24-4.66,56.3,56.3,0,0,0,10-7.87c.18-.17.17-.29,0-.37a27.11,27.11,0,0,0-4-1.84,31.91,31.91,0,0,0-10.76-2Z" transform="translate(-378.05 -118.5)"/><path class="cls-3" d="M532.58,195.88c-17.62-8.48-23.69,10.23-24.16,11.79a2.92,2.92,0,0,0-1.35.25l-5,2.31-2.38,1.09-5,2.31a2.83,2.83,0,0,0-1.07.86c-1.48-.67-19.56-8.3-24.7,10.61-5.35,19.73,24.07,72.21,33,25.76l28.58-13.11c40.85,23.65,20.54-33,2.16-41.87Z" transform="translate(-378.05 -118.5)"/><path class="cls-1" d="M490.21,269.93c-2.48,0-5.18-1.35-7.92-4-8.73-8.39-17-29.38-13.83-41,1.55-5.71,4.41-9.59,8.53-11.55,6.7-3.19,14.65-.21,16.44.54a3,3,0,0,1,1-.73l12.44-5.7a3,3,0,0,1,1.21-.29c.61-1.86,3.56-9.84,10.36-12.83,4.17-1.85,9-1.48,14.28,1.08,10.82,5.21,21.22,25.2,21.83,37.31.24,4.84-1,8.27-3.74,9.92-4,2.49-10.92,1-20.45-4.53l-28.19,12.92c-2.11,10.82-5.46,17-10,18.49a6.91,6.91,0,0,1-2,.3Zm-6.33-57.12a15.19,15.19,0,0,0-6.53,1.37c-3.88,1.85-6.6,5.56-8.09,11-3,11.06,5.13,32,13.61,40.17,2.27,2.18,5.69,4.55,9.11,3.46,4.17-1.33,7.44-7.57,9.45-18l0-.21,29-13.28.19.11c9.21,5.33,16,6.94,19.79,4.64,3.05-1.87,3.5-6,3.34-9.17-.6-11.78-11.07-31.65-21.36-36.6-5.09-2.45-9.66-2.81-13.6-1.08-6.93,3.06-9.7,11.64-10,12.61l-.1.32-.34,0a2.37,2.37,0,0,0-1.14.21L494.79,214a2.24,2.24,0,0,0-.91.73l-.2.27-.3-.14a25.51,25.51,0,0,0-9.52-2Z" transform="translate(-378.05 -118.5)"/><path class="cls-3" d="M484.14,234.09a5.91,5.91,0,1,0-5.89-5.9A5.9,5.9,0,0,0,484.14,234.09Z" transform="translate(-378.05 -118.5)"/><path class="cls-1" d="M484.15,234.51a6.32,6.32,0,0,1-5.92-8.52,6.29,6.29,0,0,1,11.64-.42,6.33,6.33,0,0,1-3.12,8.37,6.18,6.18,0,0,1-2.6.58Zm0-11.81a5.32,5.32,0,0,0-2.27.5,5.38,5.38,0,0,0-2.85,3.07,5.56,5.56,0,0,0,.15,4.2,5.47,5.47,0,0,0,7.25,2.71,5.4,5.4,0,0,0,2.85-3.08,5.47,5.47,0,0,0-.15-4.2,5.49,5.49,0,0,0-5-3.2Z" transform="translate(-378.05 -118.5)"/><path class="cls-3" d="M523.75,232.82a5.91,5.91,0,1,0-5.89-5.91A5.9,5.9,0,0,0,523.75,232.82Z" transform="translate(-378.05 -118.5)"/><path class="cls-1" d="M523.76,233.23a6.31,6.31,0,1,1,2.6-.57,6.17,6.17,0,0,1-2.6.57Zm0-11.81a5.48,5.48,0,0,0-5.12,3.57,5.55,5.55,0,0,0,.15,4.2A5.47,5.47,0,0,0,526,231.9a5.49,5.49,0,0,0-2.28-10.48Z" transform="translate(-378.05 -118.5)"/><path class="cls-3" d="M501.42,235.07l-2.32,1.07L498,233.8a1.88,1.88,0,1,0-3.42,1.57l1.06,2.33-2.32,1.07a1.88,1.88,0,0,0,1.56,3.43l2.33-1.07,1.06,2.34a1.88,1.88,0,1,0,3.42-1.57l-1.06-2.33L503,238.5a1.88,1.88,0,0,0-1.56-3.43Z" transform="translate(-378.05 -118.5)"/><path class="cls-1" d="M500,245a2.31,2.31,0,0,1-2.09-1.34l-.89-2-2,.9a2.3,2.3,0,0,1-1.91-4.19l2-.89-.89-2a2.31,2.31,0,0,1,1.13-3,2.26,2.26,0,0,1,1.75-.06,2.35,2.35,0,0,1,1.29,1.21l.89,2,1.95-.89a2.3,2.3,0,0,1,1.91,4.18l-2,.9.88,1.95a2.24,2.24,0,0,1,.06,1.76A2.29,2.29,0,0,1,500,245Zm-2.58-4.4,1.24,2.72a1.46,1.46,0,0,0,1.94.72,1.41,1.41,0,0,0,.77-.82,1.45,1.45,0,0,0,0-1.12l-1.24-2.72,2.71-1.24a1.48,1.48,0,0,0,.72-2,1.46,1.46,0,0,0-1.94-.73l-2.71,1.24L497.65,234a1.47,1.47,0,0,0-.82-.77,1.45,1.45,0,0,0-1.12,0,1.48,1.48,0,0,0-.72,1.95l1.23,2.72-2.71,1.24a1.47,1.47,0,0,0,1.23,2.68Z" transform="translate(-378.05 -118.5)"/><path class="cls-3" d="M524.21,206.78a1.94,1.94,0,1,0-1.94-1.94A1.94,1.94,0,0,0,524.21,206.78Z" transform="translate(-378.05 -118.5)"/><path class="cls-1" d="M524.21,207.2a2.34,2.34,0,0,1-2.13-1.38A2.39,2.39,0,0,1,522,204a2.31,2.31,0,0,1,1.22-1.31,2.34,2.34,0,0,1,3.11,1.15,2.39,2.39,0,0,1,.07,1.8,2.33,2.33,0,0,1-1.22,1.32A2.45,2.45,0,0,1,524.21,207.2Zm0-3.88a1.57,1.57,0,0,0-.64.14,1.52,1.52,0,0,0-.74,2,1.51,1.51,0,0,0,2,.75,1.53,1.53,0,0,0-.1-2.81A1.66,1.66,0,0,0,524.21,203.32Z" transform="translate(-378.05 -118.5)"/><path class="cls-3" d="M521.75,212.89a1.94,1.94,0,1,0-1.94-1.94A1.93,1.93,0,0,0,521.75,212.89Z" transform="translate(-378.05 -118.5)"/><path class="cls-1" d="M521.75,213.3a2.35,2.35,0,1,1,2.13-3.33,2.39,2.39,0,0,1,.07,1.8,2.36,2.36,0,0,1-1.22,1.32,2.42,2.42,0,0,1-1,.21Zm0-3.88a1.41,1.41,0,0,0-.63.14,1.52,1.52,0,0,0,1.26,2.77,1.5,1.5,0,0,0,.79-.85,1.58,1.58,0,0,0,0-1.17A1.54,1.54,0,0,0,521.74,209.42Z" transform="translate(-378.05 -118.5)"/><path class="cls-3" d="M530.59,209.3a1.94,1.94,0,1,0-1.93-1.94A1.94,1.94,0,0,0,530.59,209.3Z" transform="translate(-378.05 -118.5)"/><path class="cls-1" d="M530.6,209.71a2.35,2.35,0,0,1-2.2-3.17,2.34,2.34,0,0,1,4.33-.16,2.39,2.39,0,0,1,.06,1.8,2.3,2.3,0,0,1-1.22,1.32A2.39,2.39,0,0,1,530.6,209.71Zm0-3.87a1.56,1.56,0,0,0-.63.14,1.53,1.53,0,0,0-.79.85,1.58,1.58,0,0,0,0,1.17,1.52,1.52,0,0,0,2.76-1.27,1.47,1.47,0,0,0-.85-.79A1.35,1.35,0,0,0,530.59,205.84Z" transform="translate(-378.05 -118.5)"/><path class="cls-3" d="M528.13,215.4a1.94,1.94,0,1,0-1.93-1.94A1.94,1.94,0,0,0,528.13,215.4Z" transform="translate(-378.05 -118.5)"/><path class="cls-1" d="M528.13,215.82a2.34,2.34,0,1,1,1-.21,2.45,2.45,0,0,1-1,.22Zm0-3.87a1.62,1.62,0,0,0-.63.13,1.52,1.52,0,1,0,2,.75,1.51,1.51,0,0,0-1.38-.89Z" transform="translate(-378.05 -118.5)"/><path class="cls-3" d="M514.3,234.88l-3.89,1.78a.53.53,0,0,0-.26.7.52.52,0,0,0,.69.26l3.89-1.78a.53.53,0,0,0,.26-.7A.52.52,0,0,0,514.3,234.88Z" transform="translate(-378.05 -118.5)"/><path class="cls-1" d="M510.63,238.08a1,1,0,0,1-.33-.05.93.93,0,0,1-.52-.49,1,1,0,0,1,0-.72.91.91,0,0,1,.49-.53l3.9-1.78a.92.92,0,0,1,.71,0,.9.9,0,0,1,.53.5,1,1,0,0,1-.47,1.25L511,238a.91.91,0,0,1-.39.08Zm3.85-2.81-3.9,1.78a.12.12,0,0,0-.05.14l.14.05,3.9-1.78a.11.11,0,0,0,0-.14Z" transform="translate(-378.05 -118.5)"/><path class="cls-3" d="M536.83,355.09,455.07,380.3a3.9,3.9,0,0,1-5.05-2.58l-13.59-51.83a4.31,4.31,0,0,1,3-5.08l81.75-25.21a3.89,3.89,0,0,1,5,2.58L539.87,350A4.32,4.32,0,0,1,536.83,355.09Z" transform="translate(-378.05 -118.5)"/><path class="cls-1" d="M453.78,380.92a4.63,4.63,0,0,1-2.19-.56,4.1,4.1,0,0,1-2-2.54L436,326a4.74,4.74,0,0,1,3.32-5.58l81.76-25.21a4.62,4.62,0,0,1,3.6.34,4.08,4.08,0,0,1,2,2.53l13.6,51.83a4.75,4.75,0,0,1-3.32,5.58L455.2,380.7A5,5,0,0,1,453.78,380.92Zm68.74-85.09a4.37,4.37,0,0,0-1.18.17l-81.76,25.21a3.91,3.91,0,0,0-2.76,4.57l13.6,51.83a3.17,3.17,0,0,0,1.57,2,3.77,3.77,0,0,0,2.95.28l81.76-25.21a3.9,3.9,0,0,0,2.76-4.57l-13.59-51.83a3.24,3.24,0,0,0-1.57-2A3.62,3.62,0,0,0,522.52,295.83Z" transform="translate(-378.05 -118.5)"/><path class="cls-3" d="M496.06,367.08s10.83-7.65,21.72-11.82c2.85-1.09,9.61-3.12,13.91-4.37a4,4,0,0,0,2.82-4.78L520.9,294.34a3.09,3.09,0,0,0-4.41-1.89l-35.72,17.16Z" transform="translate(-378.05 -118.5)"/><path class="cls-1" d="M495.82,367.76l-15.54-58.38,36-17.3a3.66,3.66,0,0,1,3.15-.05,3.34,3.34,0,0,1,1.85,2.2L534.93,346a4.43,4.43,0,0,1-3.12,5.29c-3.93,1.15-11,3.25-13.87,4.36-10.72,4.1-21.52,11.69-21.63,11.78l-.49.34Zm-14.56-57.92,15.05,56.56c2.24-1.53,11.81-7.89,21.33-11.53,2.76-1.06,9.1-3,13.93-4.38a3.57,3.57,0,0,0,2.54-4.27L520.5,294.45a2.49,2.49,0,0,0-1.39-1.66,2.82,2.82,0,0,0-2.44,0l-35.41,17Z" transform="translate(-378.05 -118.5)"/><path class="cls-3" d="M442.13,315.86A3.41,3.41,0,0,0,439.3,320l13.62,51.77a3.63,3.63,0,0,0,4.72,2.45c4.26-1.38,11-3.53,13.94-4.23,11.3-2.69,24.21-2.37,24.21-2.37l-15-57.57-38.7,5.83Z" transform="translate(-378.05 -118.5)"/><path class="cls-1" d="M456.4,374.82a4,4,0,0,1-2-.51,3.93,3.93,0,0,1-1.92-2.46l-13.62-51.77a3.69,3.69,0,0,1,.51-2.93,3.91,3.91,0,0,1,2.67-1.72l39.07-5.88L496.33,368l-.55,0c-.13,0-13-.28-24.1,2.36-3,.71-10,2.95-13.91,4.22a4.3,4.3,0,0,1-1.36.22Zm24.12-64.32-38.33,5.77a3,3,0,0,0-2.09,1.35,2.83,2.83,0,0,0-.4,2.25l13.61,51.77a3.06,3.06,0,0,0,1.52,1.94,3.37,3.37,0,0,0,2.68.22c4.79-1.56,11.1-3.56,14-4.24,9.9-2.36,21.17-2.41,23.76-2.38L480.52,310.5Z" transform="translate(-378.05 -118.5)"/><path class="cls-3" d="M494.54,297.85c-11.37,7.65-13.36,11.1-13.7,12.18-.82-.73-4.19-2.52-17.57-2.52a49.51,49.51,0,0,0-17.56,2.88,3.65,3.65,0,0,0-2.26,4.26l13.23,50.29a3.15,3.15,0,0,0,3.66,2.29c2.55-.44,7.35-1,16.35-1.68a52.44,52.44,0,0,1,19.11,2.06s.12.17.2.07l.2.06a62.85,62.85,0,0,1,15.17-12.9c7.17-4.14,11.42-6.36,13.94-7.55a4.59,4.59,0,0,0,2.54-5.24l-12.72-48.39a4.43,4.43,0,0,0-5.63-3A52.87,52.87,0,0,0,494.54,297.85Z" transform="translate(-378.05 -118.5)"/><path class="cls-1" d="M496.32,368.23l-.33-.12h-.07a.56.56,0,0,1-.36-.14,51.87,51.87,0,0,0-18.86-2c-9.28.67-14,1.27-16.3,1.67a3.58,3.58,0,0,1-4.13-2.59l-13.22-50.29a4.07,4.07,0,0,1,2.51-4.75,49.7,49.7,0,0,1,17.7-2.91h0c11.57,0,15.83,1.32,17.39,2.3.78-1.56,3.59-5.12,13.64-11.88a53.43,53.43,0,0,1,15.1-7.28,5,5,0,0,1,3.92.45,4.68,4.68,0,0,1,2.21,2.88L528.25,342a5,5,0,0,1-2.77,5.72c-3.16,1.5-7.84,4-13.91,7.54A63,63,0,0,0,496.51,368l-.18.22Zm-.26-1a63.83,63.83,0,0,1,15.1-12.78c6.08-3.51,10.78-6.06,14-7.57a4.14,4.14,0,0,0,2.31-4.75l-12.72-48.39a3.86,3.86,0,0,0-1.81-2.37,4.21,4.21,0,0,0-3.29-.37,52.75,52.75,0,0,0-14.85,7.17c-11.5,7.74-13.27,11.12-13.53,12l-.19.61-.48-.42c-.64-.57-3.77-2.42-17.3-2.43h0a49,49,0,0,0-17.4,2.86,3.24,3.24,0,0,0-2,3.76l13.23,50.29a2.76,2.76,0,0,0,3.19,2c3.34-.58,9-1.16,16.38-1.69a52.82,52.82,0,0,1,19.2,2.06l.21.07Z" transform="translate(-378.05 -118.5)"/><path class="cls-1" d="M481.24,309.92l-.8.21,15,56.88.8-.21Z" transform="translate(-378.05 -118.5)"/><path class="cls-1" d="M463.75,359.07a4.15,4.15,0,0,1-4-3.15l-8.85-33.65a4.67,4.67,0,0,1,3.18-5.62,35.76,35.76,0,0,1,10.66-1.38c6.91.07,10.08.81,11.51,1.43a1.81,1.81,0,0,1,1.07,1.27l10.13,38.51a2.05,2.05,0,0,1-.52,1.95A2,2,0,0,1,485,359a36.51,36.51,0,0,0-10.54-.85c-4.35.27-7.77.57-10.15.9a5.85,5.85,0,0,1-.59,0Zm.46-43a34.43,34.43,0,0,0-9.94,1.35,3.86,3.86,0,0,0-2.62,4.61l8.86,33.65a3.33,3.33,0,0,0,3.71,2.5c2.41-.32,5.85-.63,10.22-.91a38.08,38.08,0,0,1,10.79.88,1.13,1.13,0,0,0,1.08-.34,1.23,1.23,0,0,0,.3-1.15l-10.12-38.51a1,1,0,0,0-.6-.72c-1.37-.58-4.43-1.29-11.2-1.37h-.48Z" transform="translate(-378.05 -118.5)"/><path class="cls-1" d="M479.07,329.35l-25.17.91,0,.83,25.17-.91Z" transform="translate(-378.05 -118.5)"/><path class="cls-1" d="M459.46,315.86l-.81.19,3.44,14.47.81-.19Z" transform="translate(-378.05 -118.5)"/><path class="cls-1" d="M484.33,344.69l-26.44,1.48,0,.83,26.44-1.48Z" transform="translate(-378.05 -118.5)"/><path class="cls-1" d="M475.06,346l-4.23,11.42.77.29,4.24-11.42Z" transform="translate(-378.05 -118.5)"/><path class="cls-1" d="M498.42,354.77a2,2,0,0,1-.49-.07,1.89,1.89,0,0,1-1.37-1.36l-10.12-38.52a2,2,0,0,1,.29-1.65c.92-1.34,3.25-3.78,9.08-7.79a37.51,37.51,0,0,1,9.72-4.91,4.25,4.25,0,0,1,5.48,3l8.85,33.66a4.58,4.58,0,0,1-2.39,5.24c-2.19,1.08-5.23,2.78-9.07,5a40.75,40.75,0,0,0-8.56,6.76A1.94,1.94,0,0,1,498.42,354.77Zm8.47-53.69a3.58,3.58,0,0,0-1.11.18,36.14,36.14,0,0,0-9.51,4.82c-5.72,3.94-8,6.29-8.86,7.56a1.21,1.21,0,0,0-.17,1l10.13,38.51a1.08,1.08,0,0,0,.76.77,1.11,1.11,0,0,0,1.11-.33,41.47,41.47,0,0,1,8.74-6.91c3.84-2.27,6.91-4,9.12-5.06a3.79,3.79,0,0,0,2-4.29l-8.86-33.65a3.42,3.42,0,0,0-3.31-2.57Z" transform="translate(-378.05 -118.5)"/><path class="cls-1" d="M512.3,312l-21.85,13.61.44.7,21.84-13.6Z" transform="translate(-378.05 -118.5)"/><path class="cls-1" d="M516.61,327.77l-23.18,13.85.42.71L517,328.49Z" transform="translate(-378.05 -118.5)"/><path class="cls-1" d="M508.06,330.31a3.17,3.17,0,0,1-1.48-.4,6.57,6.57,0,0,1-2.81-4.1c-.8-3.06.13-5.95,2.12-6.56a2.79,2.79,0,0,1,2.23.3,6.51,6.51,0,0,1,2.81,4.09c.81,3.07-.12,5.95-2.12,6.57a2.67,2.67,0,0,1-.75.11ZM506.65,320a1.75,1.75,0,0,0-.51.08c-1.51.47-2.23,3-1.56,5.56a5.69,5.69,0,0,0,2.41,3.57,2,2,0,0,0,1.58.23c1.52-.47,2.24-3,1.57-5.56a5.7,5.7,0,0,0-2.41-3.57,2.28,2.28,0,0,0-1.08-.31Z" transform="translate(-378.05 -118.5)"/><path class="cls-1" d="M497.89,337a3,3,0,0,1-1.45-.39,3.8,3.8,0,0,1-1.78-2.38,3.68,3.68,0,0,1,2.14-4.53,3,3,0,0,1,2.3.26,3.81,3.81,0,0,1,1.77,2.39,3.66,3.66,0,0,1-2.14,4.52A3,3,0,0,1,497.89,337Zm-.26-6.6a2.09,2.09,0,0,0-.59.1,2.83,2.83,0,0,0-1.58,3.51,2.94,2.94,0,0,0,1.38,1.87,2.06,2.06,0,0,0,1.64.19,2.83,2.83,0,0,0,1.59-3.52,3,3,0,0,0-1.38-1.86A2.14,2.14,0,0,0,497.63,330.41Z" transform="translate(-378.05 -118.5)"/><path class="cls-1" d="M473,327.43a2.58,2.58,0,0,1-1.31-.37,5.33,5.33,0,0,1-2.32-3.34c-.66-2.54.17-5,1.89-5.48a2.51,2.51,0,0,1,2,.26,5.37,5.37,0,0,1,2.32,3.34c.66,2.54-.17,5-1.9,5.48a2.24,2.24,0,0,1-.68.1ZM472,319a1.55,1.55,0,0,0-.43.07c-1.27.39-1.87,2.43-1.34,4.47a4.53,4.53,0,0,0,1.92,2.83,1.67,1.67,0,0,0,1.34.19c1.27-.39,1.87-2.43,1.34-4.47a4.54,4.54,0,0,0-1.92-2.83A1.88,1.88,0,0,0,472,319Z" transform="translate(-378.05 -118.5)"/><path class="cls-1" d="M462.7,343.9l-2.77-10.53,7.53-.47,2.42,10.53ZM461,334.15l2.33,8.88,5.53-.37-2.05-8.88-5.81.36Z" transform="translate(-378.05 -118.5)"/><path class="cls-2" d="M462.06,131.8a6.44,6.44,0,1,0-6.42-6.44A6.43,6.43,0,0,0,462.06,131.8Z" transform="translate(-378.05 -118.5)"/><path class="cls-2" d="M462.06,132.21a6.86,6.86,0,1,1,6.84-6.85A6.85,6.85,0,0,1,462.06,132.21Zm0-12.88a6,6,0,1,0,6,6A6,6,0,0,0,462.06,119.33Z" transform="translate(-378.05 -118.5)"/><path class="cls-1" d="M626.53,197.25a7.36,7.36,0,1,1,7.33-7.36A7.36,7.36,0,0,1,626.53,197.25Zm0-13.89a6.53,6.53,0,1,0,6.5,6.52A6.52,6.52,0,0,0,626.53,183.36Z" transform="translate(-378.05 -118.5)"/></svg>