<?xml version="1.0" encoding="utf-8"?>
<!-- Generator: Adobe Illustrator 24.0.3, SVG Export Plug-In . SVG Version: 6.00 Build 0)  -->
<svg version="1.1" id="圖層_1" xmlns="http://www.w3.org/2000/svg" xmlns:xlink="http://www.w3.org/1999/xlink" x="0px" y="0px"
	 viewBox="0 0 301 508" style="enable-background:new 0 0 301 508;" xml:space="preserve">
<style type="text/css">
	.st0{fill:#DC552C;}
	.st1{fill:#DE572D;}
	.st2{fill:#F5CD52;}
	.st3{fill:#EEC854;}
</style>
<title>banner</title>
<path class="st0" d="M201.2,148.3l-58.2-87.7l-0.8-15.9l16.2-13.1l15.5,4.5l0.1,0.1l75.1,70.4L201.2,148.3L201.2,148.3z M143.9,60.3
	l57.5,86.8l46.5-40.4l-74.3-69.7l-14.9-4.4l-15.5,12.6L143.9,60.3L143.9,60.3z"/>
<path class="st0" d="M194.1,55.5l-34.7,29l0.5,0.6l34.7-28.9L194.1,55.5z"/>
<path class="st0" d="M218.5,78.4l-40.6,34l0.5,0.6l40.6-34L218.5,78.4z"/>
<path class="st0" d="M242,100.5L196,139.7l0.5,0.6l46.1-39.2L242,100.5z"/>
<path class="st0" d="M173.5,36.2l-30.2,23.9l0.5,0.6L174,36.8L173.5,36.2z"/>
<path class="st0" d="M241.2,107.6l-0.6,0.6l2.6,2.9l0.6-0.6L241.2,107.6z"/>
<path class="st0" d="M238,110.3l-0.6,0.6l2.6,3l0.6-0.6L238,110.3z"/>
<path class="st0" d="M235,113l-0.6,0.5l2.6,3l0.6-0.6L235,113z"/>
<path class="st0" d="M231.8,115.8l-0.6,0.5l2.6,3l0.6-0.6L231.8,115.8z"/>
<path class="st0" d="M228.6,118.5L228,119l2.6,3l0.6-0.6L228.6,118.5z"/>
<path class="st0" d="M225.5,121.1l-0.6,0.6l2.6,3l0.6-0.6L225.5,121.1z"/>
<path class="st0" d="M222.3,123.9l-0.6,0.6l2.6,2.9l0.6-0.5L222.3,123.9z"/>
<path class="st0" d="M219.2,126.6l-0.6,0.6l2.6,2.9l0.6-0.6L219.2,126.6z"/>
<path class="st0" d="M216,129.3l-0.6,0.6l2.6,2.9l0.6-0.6L216,129.3z"/>
<path class="st0" d="M213,132l-0.6,0.5l2.6,3l0.6-0.6L213,132z"/>
<path class="st0" d="M209.8,134.7l-0.6,0.6l2.6,3l0.6-0.5L209.8,134.7z"/>
<path class="st0" d="M206.6,137.5L206,138l2.6,3l0.6-0.5L206.6,137.5z"/>
<path class="st0" d="M203.5,140.2l-0.6,0.5l2.6,3l0.6-0.5L203.5,140.2z"/>
<path class="st1" d="M193.7,80.8c2.2,2.6,1.8,6.4-0.8,8.6s-6.4,1.8-8.6-0.8c-2.2-2.6-1.8-11.7-1.8-11.7S191.5,78.2,193.7,80.8z"/>
<path class="st0" d="M189,91.3c-1.9,0-3.8-0.9-5-2.4c-2.2-2.7-1.9-11.6-1.9-12v-0.5l0.5,0.1c0.4,0,9.2,1.3,11.5,4
	c2.3,2.8,2,6.9-0.8,9.2C192,90.7,190.5,91.3,189,91.3L189,91.3z M182.9,77.4c0,1.9,0,8.9,1.7,11c1.9,2.5,5.5,2.9,8,1
	c2.5-1.9,2.9-5.5,1-8c-0.1-0.1-0.2-0.2-0.2-0.3C191.6,79,184.7,77.8,182.9,77.4L182.9,77.4z"/>
<path class="st1" d="M145.2,20.6c-1.5-2.1-8.8-4-11.5-8.8c-2.4-4.4-3.4-9.4-8.4-10.1c-5.2-0.6-10,2.9-11,8c-0.9,5.3,2.6,10.4,8,11.3
	c0.1,0,0.2,0,0.4,0.1c2,0.3,3.8-1.5,5.6-0.9c4,1.2,4.4,7.1,5.6,8.7c2.6,3.6,7.3,4.6,10.4,2.3S147.8,24.2,145.2,20.6L145.2,20.6z"/>
<path class="st1" d="M140.5,32.9c-0.6,0-1.1-0.1-1.7-0.2c-2.1-0.5-4-1.8-5.3-3.5c-0.4-0.8-0.8-1.6-1-2.4c-0.7-2.2-1.8-5.4-4.3-6.1
	c-0.9-0.1-1.8,0-2.6,0.4c-0.9,0.4-1.9,0.6-2.9,0.5c-5.6-0.8-9.5-5.9-8.8-11.5c0-0.1,0-0.3,0.1-0.4c1-5.4,6-9.1,11.4-8.4
	c4.1,0.6,5.6,3.9,7.2,7.3c0.5,1,0.9,2,1.5,3c1.6,2.9,5,4.7,7.7,6.2c1.4,0.6,2.7,1.5,3.8,2.6c2.8,3.8,2.3,8.8-1,11.2
	C143.4,32.5,142,32.9,140.5,32.9L140.5,32.9z M127.6,19.7c0.3,0,0.6,0,0.9,0.1c3,0.9,4.1,4.2,4.9,6.7c0.2,0.8,0.5,1.5,0.9,2.2
	c1.1,1.6,2.8,2.8,4.7,3.2c1.8,0.4,3.6,0.1,5.1-1c3-2.2,3.3-6.7,0.9-10.1c-1-1-2.2-1.8-3.5-2.3c-2.8-1.5-6.3-3.4-8-6.5
	c-0.5-1-1-2-1.5-3c-1.6-3.4-3-6.3-6.6-6.8c-5-0.7-9.6,2.7-10.5,7.7c-0.4,2.5,0.2,5.1,1.7,7.2c1.5,2.1,3.8,3.4,6.3,3.7
	c0.9,0,1.7-0.1,2.5-0.5C126,19.9,126.8,19.7,127.6,19.7L127.6,19.7z"/>
<path class="st2" d="M138.2,29.5l6.3-5c1.3-1,3.1-0.8,4.2,0.5l7.5,9.4l-10.9,8.8l-7.5-9.4C136.7,32.4,136.9,30.6,138.2,29.5
	C138.2,29.5,138.2,29.5,138.2,29.5z"/>
<path class="st0" d="M145.1,43.6l-7.8-9.7c-1.2-1.5-0.9-3.6,0.5-4.8l6.2-5c1.4-1.2,3.6-0.9,4.7,0.5c0,0,0,0,0,0l7.8,9.7L145.1,43.6z
	 M144.7,24.7l-6.3,5c-1.1,0.9-1.3,2.5-0.4,3.6c0,0,0,0,0,0l7.2,9l10.2-8.2l-7.2-9C147.4,24,145.8,23.8,144.7,24.7
	C144.7,24.7,144.7,24.7,144.7,24.7L144.7,24.7z"/>
<path class="st0" d="M158.3,411.5c-4.5,0-9-0.3-13.5-0.8c-31.7-3.4-48.1-31-51.1-36.5c-4.1-7.6-3.8-19.9-3.4-31.8
	c0.3-5.5,0.3-11,0-16.5c-1.2-14.6,0-21,0-21.2l0.1-0.4l0.3-0.2c2.2-1.3,4.3-2.8,6.3-4.4c8.9-6.8,16.2-15.3,21.6-25.1l1.6-3L120,275
	c0,1.2-0.3,28.5,23.5,31.4c-6.6-10.3-4.1-30.6-4-30.8l0.7-5.3l0.9,5.3c0,0.3,4.7,25.5,33.5,32.4c-10-14-7.9-22.7-7.8-23.1l0.5-1.9
	l1,1.7c0.2,0.3,16.3,26.4,37.6,30.2c-2.4-3.9-8-13.8-5.6-20.6l0.7-2l0.8,2c0.1,0.2,7.9,18.4,14.4,23l0.2,0.2l0.1,0.3
	c2.2,7.1,5.2,14,8.8,20.6c9.5-8.5,16.1-6.8,16.3-6.7c0,0,11.8,2.2,11.8,14.9s-4.2,18.4-12.6,26c-7.4,6.8-18.5,4.8-21.2,4.2
	C201,405,179,411.5,158.3,411.5z M91.7,305.4c-0.2,1.5-0.9,8,0.1,20.4c0.3,5.6,0.3,11.1,0.1,16.7c-0.4,11.7-0.7,23.7,3.2,31
	c2.9,5.4,19,32.3,49.9,35.7c23.8,2.6,51.2,0.5,73.6-33.9l0.3-0.5l0.6,0.2c0.1,0,12.6,3.4,20.2-3.6c8.2-7.5,12.1-13.1,12.1-24.8
	s-10.1-13.2-10.5-13.3c-0.1,0-6.4-1.5-15.6,7l-0.8,0.7l-0.5-0.9c-3.9-6.8-7-14.1-9.4-21.5c-5.4-4-11.2-16-13.6-21.1
	c-0.5,7.6,6.9,18.1,6.9,18.2l1.1,1.5l-1.8-0.2c-19.6-2.3-34.8-22.6-39.3-29.2c0,3.5,1.3,11,9,21.2l1.3,1.8l-2.2-0.4
	c-24-4.8-32.8-21.6-35.7-29.7c-0.3,6.9-0.2,20.1,5.2,26.6l1.2,1.5l-1.9-0.1c-22.1-1.5-26-22.5-26.7-30.4
	c-5.4,8.9-12.3,16.8-20.6,23.1C96,302.6,93.9,304,91.7,305.4L91.7,305.4z"/>
<path class="st0" d="M148.2,419.7c-19.3-0.8-31.4-7.7-36.2-11l2.3,6.3h-1.2c-0.2,0-17.3-0.4-28-19.8c0.1,3.3,1.2,8.8,6,14.9l1,1.2
	l-1.5,0.1c-0.3,0-7.2,0.6-15.1-6.8c-0.5-0.4-10.7-9.8-6.7-30.6c-3.3,6.1-7.6,18.1,0.1,29.5l1.3,2l-2.3-0.7c-3.9-1.4-7.7-3.3-11-5.8
	c-5.3-4.1-8.2-19-3.8-27.6c3.1-5.8,6.9-11.1,11.2-16.1c0.2-0.2,19.7-20.3,18.6-28.9c-0.1-1.1-0.7-2.1-1.7-2.6
	c-2.5-1.6-4.5-3.7-6.1-6.1c-5.7-8.8-6.2-20-1.4-29.2c2.5-5,5.5-9.6,9-14c12.2-15.5,41.4-19.8,42.7-20l1-0.1l-0.1,1
	c0,0.1-0.4,14,46.3,18.7c40.4,4.1,66.8,1.1,83-9.5c1.8-1.1,4.1-0.8,5.5,0.8c4,4.6,13.7,16.1,15.7,24.6c0.6,2.6,1.9,7.3,3.6,13.3
	c5.2,18.8,14,50.1,14,61.6h-1.7c0-11.3-8.7-42.5-13.9-61.2c-1.7-6-3-10.8-3.6-13.4c-2-8.2-11.4-19.4-15.3-23.9
	c-0.9-1-2.3-1.2-3.4-0.5c-16.5,10.8-43.2,13.9-84,9.7c-41.9-4.3-47.1-15.9-47.7-19.5c-5,0.8-30.1,5.6-40.7,19.2
	c-3.4,4.3-6.3,8.8-8.8,13.7c-4.6,8.7-4.1,19.3,1.2,27.6c1.4,2.3,3.3,4.2,5.6,5.6c1.4,0.8,2.3,2.3,2.5,3.9c1.2,9.5-18.2,29.4-19,30.3
	c0,0-7,7.9-10.9,15.7s-1.3,21.9,3.4,25.5c2.6,1.9,5.3,3.5,8.3,4.7c-9.2-16.6,3.7-33.3,3.9-33.5l2.5-3.2l-1.1,4
	c-6.4,23.1,5,33.7,5.1,33.8c5.1,4.8,9.7,6,12.1,6.3c-6.8-9.5-5.2-17.5-5.1-17.8l0.5-2.4l1,2.2c8.6,17.9,22.5,20.9,26.7,21.5
	l-3.5-9.6l2.4,2.1c0.1,0.1,13.1,11.3,37.5,12.3L148.2,419.7L148.2,419.7z"/>
<path class="st0" d="M216.5,416v-1.7c0.2,0,21.9-0.2,31.2-17l1.1-2l0.4,2.2c0,0.3,1.1,6.1-6.1,14.5l11-2.3
	c12.9-2.7,21-26.6,21.1-26.8l1.2-3.4l0.5,3.6c0.1,0.6,1.9,15.3-4.1,24.9c1.4,0,4.4-0.5,9.5-3.8c16.6-10.6,10.5-38.6,10.5-38.9
	l1.6-0.4c0.3,1.2,6.4,29.4-11.2,40.7c-8.5,5.5-11.8,4-12.2,3.8l-0.8-0.5l0.5-0.8c4.5-6.3,4.9-15.8,4.8-21c-2.9,7-10.2,22.1-21,24.3
	l-16.2,3.4l1.9-2c5-5.1,6.7-9.3,7.2-11.9C236.9,415.8,216.7,415.9,216.5,416L216.5,416z"/>
<path class="st0" d="M148.7,431.6l-1.5-0.7c3.1-6.7-0.6-20.4-0.6-20.5l1.6-0.4C148.3,410.5,152,424.3,148.7,431.6z"/>
<path class="st0" d="M137.1,427.5l-0.2-1.7c4.2-0.5,8.2-1.9,11.9-3.9l0.9,1.4C145.8,425.5,141.5,426.9,137.1,427.5L137.1,427.5z"/>
<path class="st0" d="M69,501.3l-1.6-0.2c0-0.2,2.2-22.1,20.8-45.7s47.7-30.5,48-30.6l0.2-0.1l1.5,0.6v0.5c0,0.1,0.8,10.1,8.8,16.9
	c5.8,5,13.9,7,24.1,6.2c27.3-2.3,48.3-21.5,53.2-26.4c-14-3.5-15.2-32.8-15.3-34.1l1.7-0.1c0,0.3,1.4,31.4,15.4,32.8l1.7,0.2
	l-1.1,1.2c-0.2,0.2-23.6,25.3-55.4,28c-10.7,0.9-19.2-1.3-25.3-6.6c-5.1-4.5-8.4-10.7-9.3-17.5l0,0c-2.9,0.7-29.5,7.9-46.8,29.9
	C71.1,479.7,69,501.1,69,501.3L69,501.3z"/>
<path class="st0" d="M299.4,496.5c-3.5-31.9-20.1-46.9-31.1-56.8c-0.6-0.5-1.1-1-1.6-1.5c-9.9-9-35.6-15.7-39.4-16.7l-1,1.1
	l-1.2-1.1l1.7-1.8l0.5,0.1c1.2,0.3,29.6,7.3,40.6,17.2c0.5,0.5,1.1,1,1.6,1.5c11.2,10.1,28.1,25.3,31.7,57.8L299.4,496.5
	L299.4,496.5z"/>
<path class="st0" d="M96.1,499.7l-1.6-0.2c2.1-14.3,8.1-29.4,8.1-29.6l1.5,0.6C104.1,470.7,98.1,485.6,96.1,499.7L96.1,499.7z"/>
<path class="st0" d="M236,508l-1.6-0.4c1.8-7.5,5.5-31.9,5.6-32.1l1.6,0.2C241.6,476,237.8,500.5,236,508z"/>
<path class="st0" d="M117.5,345.5c3,0,5.5-4,5.5-8.8s-2.5-8.8-5.5-8.8s-5.5,4-5.5,8.8S114.5,345.5,117.5,345.5z"/>
<path class="st0" d="M195.2,369.9c7,0,12.7-2.8,12.7-6.2s-5.7-6.2-12.7-6.2s-12.7,2.8-12.7,6.2S188.2,369.9,195.2,369.9z"/>
<path class="st0" d="M175.4,350.8c3,0,5.5-4,5.5-8.8s-2.5-8.8-5.5-8.8s-5.5,4-5.5,8.8S172.4,350.8,175.4,350.8z"/>
<path class="st0" d="M100.5,309.6l-1.3-1.1c0.2-0.3,5.6-6.8,12.4-7.4c3.1-0.2,6.2,0.9,8.4,3l-1.1,1.2c-1.9-1.8-4.5-2.8-7.2-2.6
	C105.7,303.3,100.5,309.5,100.5,309.6L100.5,309.6z"/>
<path class="st0" d="M187.1,316.5c-2.6-5.1-6.1-8.3-10.3-9.7c-6.8-2.1-13.3,1.3-13.3,1.3l-0.8-1.5c0.3-0.1,7.2-3.8,14.6-1.4
	c4.7,1.5,8.5,5,11.3,10.5L187.1,316.5L187.1,316.5z"/>
<path class="st0" d="M133.6,360.5c-3.2-2.1-4.8-4.5-4.8-7.1c0-4,3.9-6.8,4.1-6.9l1,1.4c0,0-3.4,2.4-3.4,5.5c0,2,1.4,3.9,4.1,5.7
	L133.6,360.5L133.6,360.5z"/>
<path class="st0" d="M144.1,383.9c-12.8,0-20-9.9-20.1-10.1l1.4-1c0.6,0.8,13.9,19,37.2,2.7l1,1.4
	C156.1,382.1,149.5,383.9,144.1,383.9z"/>
<path class="st0" d="M121.5,332.6c0-0.1-2.8-9.6-9.4-8.9s-6.3,8.3-6.3,8.7l-1.7,0.1c-0.1-3.3,1.4-9.7,7.8-10.4
	c7.9-0.8,11,9.7,11.1,10.1L121.5,332.6L121.5,332.6z"/>
<path class="st0" d="M179.4,337.9c0-0.1-2.8-9.6-9.3-8.9s-6.3,8.3-6.3,8.7l-1.7,0.1c-0.1-3.3,1.4-9.7,7.8-10.4
	c7.9-0.8,11,9.7,11.1,10.1L179.4,337.9L179.4,337.9z"/>
<path class="st0" d="M228,268.4c-4.3-0.1-8.6-0.8-12.8-2.2c-11.9-3.8-20-11.5-18.2-17.1l12.3-68.5l61.7,20l-31,62.5
	C238.9,266.6,234.3,268.5,228,268.4L228,268.4z M210,181.8l-12.2,67.6c-1.7,5.2,6.3,12.4,17.7,16.1s22,2.5,23.7-2.6l30.6-61.7
	L210,181.8z"/>
<path class="st0" d="M251,222.9c-12.6-0.5-24.9-3.5-36.4-8.6c-3.3-1.6-7.1-4-6.6-6.2s5-2.5,8.7-2.5c6.1,0.2,12.2,1.1,18.2,2.6
	c12.3,3,24.9,8.2,24,12.1C258.4,222.1,255.4,222.9,251,222.9L251,222.9z M216,206.4c-4.2,0-6.8,0.7-7.1,1.9s2,3.2,6.2,5.2
	c5.5,2.6,11.3,4.5,17.2,5.9c14.5,3.5,25.3,3.2,25.9,0.8s-8.9-7.6-23.4-11.1c-5.9-1.5-11.9-2.4-18-2.6L216,206.4L216,206.4z"/>
<path class="st0" d="M211.4,237.1c-0.4,0-0.7-0.1-1.1-0.2c-1.7-0.6-2.7-2.5-2.1-4.2c0.3-0.8,0.9-1.5,1.7-1.9
	c1.6-0.8,3.6-0.1,4.4,1.5c0.4,0.8,0.5,1.7,0.2,2.5c-0.3,0.8-0.9,1.5-1.7,1.9C212.4,237,211.9,237.1,211.4,237.1L211.4,237.1z
	 M211.4,231.3c-0.4,0-0.8,0.1-1.1,0.2c-0.6,0.3-1,0.8-1.2,1.4c-0.4,1.3,0.3,2.7,1.5,3.2c1.3,0.4,2.7-0.2,3.2-1.5c0,0,0,0,0,0
	c0.4-1.3-0.3-2.7-1.6-3.2C211.9,231.3,211.7,231.3,211.4,231.3L211.4,231.3z"/>
<path class="st0" d="M220.6,261.5c-0.4,0-0.7-0.1-1.1-0.2c-1.7-0.6-2.7-2.5-2.1-4.2c0.6-1.7,2.5-2.7,4.2-2.1
	c1.7,0.6,2.7,2.5,2.1,4.2c-0.3,0.8-0.9,1.5-1.7,1.9C221.6,261.4,221.1,261.5,220.6,261.5z M220.6,255.7c-0.4,0-0.8,0.1-1.1,0.3
	c-0.6,0.3-1,0.8-1.2,1.4c-0.4,1.3,0.2,2.7,1.5,3.2c0.6,0.2,1.3,0.2,1.9-0.1c1.2-0.6,1.7-2.1,1.1-3.3c-0.3-0.6-0.8-1-1.4-1.3
	C221.2,255.7,220.9,255.7,220.6,255.7L220.6,255.7z"/>
<path class="st0" d="M247.3,239.7c-0.4,0-0.7-0.1-1.1-0.2c-0.8-0.3-1.5-0.9-1.9-1.7c-0.4-0.8-0.5-1.7-0.2-2.5
	c0.6-1.7,2.5-2.7,4.2-2.1c0.8,0.3,1.5,0.9,1.9,1.7c0.8,1.6,0.1,3.6-1.5,4.5C248.3,239.6,247.8,239.7,247.3,239.7L247.3,239.7z
	 M247.3,233.8c-0.4,0-0.8,0.1-1.1,0.3c-0.6,0.3-1.1,0.8-1.3,1.4c-0.5,1.3,0.1,2.7,1.4,3.2s2.7-0.1,3.2-1.4c0-0.1,0.1-0.1,0.1-0.2
	c0.2-0.6,0.2-1.3-0.1-1.9c-0.3-0.6-0.8-1-1.4-1.3C247.9,233.9,247.6,233.8,247.3,233.8z"/>
<path class="st0" d="M205.3,252.6c-1.3,0-2.4-0.7-3-1.9c-0.4-0.8-0.4-1.7-0.2-2.5c0.3-0.8,0.9-1.5,1.7-1.9c1.7-0.8,3.7-0.1,4.5,1.5
	c0.8,1.7,0.1,3.7-1.5,4.5C206.3,252.4,205.8,252.6,205.3,252.6L205.3,252.6z M205.3,246.7c-1.4,0-2.5,1.1-2.5,2.5
	c0,1.4,1.1,2.5,2.5,2.5c1.1,0,2-0.7,2.4-1.7c0.2-0.6,0.2-1.3-0.1-1.9c-0.3-0.6-0.8-1-1.4-1.3C205.9,246.8,205.6,246.7,205.3,246.7z"
	/>
<path class="st2" d="M270.3,201.2c1.7-5.4-10.5-14.1-27.2-19.5s-31.7-5.5-33.5-0.1s10.5,14.1,27.2,19.5S268.5,206.5,270.3,201.2z"/>
<path class="st0" d="M259.3,205.6h-0.1c-6.4,0-14.3-1.5-22.5-4.1c-17.2-5.6-29.3-14.4-27.5-20.1c0.9-2.8,4.9-4.3,11.4-4.3h0.1
	c6.4,0,14.3,1.5,22.5,4.1s15.5,6.1,20.7,9.9s7.7,7.4,6.8,10.2S265.8,205.6,259.3,205.6z M220.6,177.9c-6,0-9.8,1.4-10.6,3.7
	c-1.6,5.1,10.7,13.8,27,19c8.1,2.6,16,4.1,22.2,4.1h0.1c6,0,9.8-1.4,10.6-3.7s-1.6-5.8-6.5-9.3c-5.1-3.7-12.4-7.1-20.4-9.7
	s-16-4-22.2-4.1L220.6,177.9z"/>
<path class="st0" d="M229.1,253.5c-1.4-0.2-2.7-0.6-3.9-1.2c-0.9-0.4-1.8-0.9-2.7-1.5c-0.7-0.5-1.3-1-1-1.5l22.2-46.6l8.7,1.7
	l-22.5,48.8C229.7,253.4,229.5,253.5,229.1,253.5z M222.3,249.5c1,0.8,2.1,1.5,3.2,2c1.1,0.6,2.3,1,3.6,1.2l22-47.7l-7-1.4
	L222.3,249.5z"/>
<path class="st0" d="M254.8,198c-0.4,0-0.8-0.1-1.2-0.2c-1-0.3-1.9-0.7-2.8-1.1c-4.2-1.9-3.9-2.6-3.8-2.9l18.7-40.6l8.3,3.9
	l-18.7,40.6C255.3,197.9,255,198,254.8,198L254.8,198z M247.9,194c1,0.8,2.1,1.4,3.3,1.9c1.1,0.6,2.3,1,3.6,1.3l18.3-39.7l-6.8-3.2
	L247.9,194z"/>
<path class="st3" d="M273.6,157.2c0.1-0.3-1.5-1.3-3.5-2.3s-3.9-1.5-4.1-1.2s1.5,1.3,3.5,2.3S273.4,157.5,273.6,157.2z"/>
<path class="st0" d="M273.3,157.7c-1.4-0.2-2.8-0.6-4-1.3c-4.2-1.9-3.8-2.6-3.7-2.9s0.4-0.9,4.6,1c0.9,0.4,1.8,0.9,2.7,1.4
	c0.8,0.5,1.3,1,1.1,1.4C273.9,157.5,273.8,157.7,273.3,157.7L273.3,157.7z M267,154.2c0.8,0.5,1.7,1,2.7,1.4
	c0.9,0.4,1.9,0.8,2.8,1.1c-0.9-0.5-1.7-1-2.7-1.4C268.9,154.8,268,154.5,267,154.2L267,154.2z"/>
<path class="st2" d="M225.2,242.6c1.6,0,2.9-1.3,2.9-2.9c0-1.6-1.3-2.9-2.9-2.9c-1.6,0-2.9,1.3-2.9,2.9c0,0,0,0,0,0
	C222.3,241.3,223.6,242.6,225.2,242.6L225.2,242.6z"/>
<path class="st0" d="M225.2,243c-0.4,0-0.7-0.1-1.1-0.2c-0.8-0.3-1.5-0.9-1.9-1.7c-0.4-0.8-0.4-1.7-0.2-2.5c0.3-0.8,0.9-1.5,1.7-1.9
	c1.6-0.8,3.6-0.1,4.4,1.5c0.4,0.8,0.5,1.7,0.2,2.6C227.9,242.1,226.7,243,225.2,243L225.2,243z M225.2,237.2c-0.4,0-0.8,0.1-1.1,0.3
	c-0.6,0.3-1,0.8-1.3,1.4c-0.2,0.6-0.2,1.3,0.1,1.9c0.3,0.6,0.8,1.1,1.4,1.3c0.6,0.2,1.3,0.2,1.9-0.1c0.6-0.3,1-0.8,1.2-1.4
	c0.5-1.3-0.2-2.7-1.5-3.2C225.8,237.2,225.5,237.2,225.2,237.2L225.2,237.2z"/>
<path class="st0" d="M200.6,202.7c-0.5,0-1-0.1-1.6-0.2l-47.8-11.9c-3.5-0.9-5.6-4.4-4.7-7.8l8.9-36c0.9-3.5,4.3-5.6,7.8-4.7
	c0,0,0,0,0,0l47.8,11.9c3.5,0.9,5.6,4.4,4.7,7.9l-8.9,36C206.2,200.6,203.6,202.7,200.6,202.7L200.6,202.7z M161.7,142.7
	c-2.6,0-4.8,1.8-5.5,4.3l-8.9,36c-0.8,3,1.1,6.1,4.1,6.8l47.8,11.9c1.4,0.4,3,0.1,4.3-0.6c1.3-0.8,2.2-2,2.6-3.5l8.9-36
	c0.8-3-1.1-6.1-4.1-6.9L163,142.8C162.6,142.7,162.1,142.7,161.7,142.7L161.7,142.7z"/>
<path class="st0" d="M154.9,153.8l-0.2,0.8l58.8,14.6l0.2-0.8L154.9,153.8z"/>
<path class="st0" d="M158.6,148.6l-0.2,0.8l9.3,2.3l0.2-0.8L158.6,148.6z"/>
<path class="st0" d="M203,159.6l-0.2,0.8l9.3,2.3l0.2-0.8L203,159.6z"/>
<path class="st2" d="M189.1,174l-2.8-4.9l40.3-21.3l2.2,4l-38.6,22.6C189.9,174.6,189.3,174.5,189.1,174
	C189.1,174,189.1,174,189.1,174L189.1,174z"/>
<path class="st0" d="M189.9,174.9c-0.1,0-0.2,0-0.3,0c-0.3-0.1-0.6-0.3-0.8-0.6l-3-5.3l41-21.7l2.6,4.7l-38.9,22.8
	C190.3,174.9,190,174.9,189.9,174.9L189.9,174.9z M186.9,169.3l2.5,4.5c0.1,0.1,0.2,0.2,0.3,0.2c0.1,0,0.3,0,0.4,0l38.2-22.4
	l-1.8-3.3L186.9,169.3L186.9,169.3z"/>
<path class="st0" d="M185,176.5c-1.2,0-2.5-0.2-3.6-0.5l-0.4-0.1l0.1-0.4c0-0.2,1.1-4.5,4.4-6.4l0.6-0.3l0.4-0.2l3.6,6.4l-0.3,0.2
	c-0.2,0.1-0.4,0.2-0.6,0.3C187.9,176.2,186.5,176.5,185,176.5L185,176.5z M182,175.3c1.1,0.3,4.3,0.9,6.7-0.5c0.1,0,0.1-0.1,0.2-0.1
	l-2.8-5l-0.2,0.1C183.5,171.2,182.4,174.2,182,175.3L182,175.3z"/>
<path class="st0" d="M181.3,175.2l-3.2,1.8l0.4,0.7l3.2-1.8L181.3,175.2z"/>
<path class="st0" d="M198.9,165.7L193,169l0.4,0.7l5.9-3.3L198.9,165.7z"/>
<path class="st0" d="M161.5,179.2c-0.9-0.9-0.1-2.3,0.9-2.7c1.4-0.5,3,0.5,4,1.3c2,1.7,3.6,4.1,6,5.2c1.9,0.9,4.4,1.1,6-0.6
	c1.3-1.3,1.4-3.5,0.2-4.9c-0.2-0.2-0.5-0.2-0.7,0c-0.2,0.2-0.2,0.5,0,0.7c0.7,0.9,0.8,2.1,0.1,3c-0.7,1-1.9,1.5-3.1,1.4
	c-2.9-0.3-4.8-2.8-6.7-4.7c-1.5-1.5-4-3.5-6.3-2.4c-1.6,0.8-2.4,3-1,4.3C161.4,180.3,162.1,179.6,161.5,179.2L161.5,179.2z"/>
<path class="st2" d="M183.4,242.2c-2.9-3.8-8.3-4.5-12.1-1.6c-0.7,0.5-1.3,1.1-1.8,1.8c-2.9-3.8-8.3-4.6-12.1-1.7s-4.6,8.3-1.7,12.1
	c-0.8,0.3-1.5,0.7-2.1,1.2c-3.8,2.9-4.6,8.3-1.7,12.1c2.2,2.9,6.1,4.2,9.6,3c0.1,4.8,4,8.6,8.8,8.5c4.8-0.1,8.6-4,8.5-8.8
	c4.6,1.3,9.4-1.4,10.7-6c1.3-4.5-1.3-9.2-5.7-10.6C185.8,249.1,185.6,245.1,183.4,242.2z"/>
<path class="st0" d="M170.1,277.9c-4.7,0-8.6-3.5-9-8.2c-4.9,1.2-9.8-1.8-11-6.7c-0.8-3.5,0.4-7.1,3.2-9.3c0.5-0.4,1.1-0.7,1.7-1
	c-2.7-4.2-1.5-9.8,2.6-12.6c3.8-2.5,8.8-1.8,11.8,1.6c3.1-3.9,8.8-4.5,12.7-1.4c3.5,2.8,4.4,7.8,2.1,11.7c1.6,0.6,2.9,1.6,3.9,3
	c3,4,2.2,9.7-1.7,12.7c-2.1,1.6-4.8,2.2-7.4,1.6c-0.3,4.8-4.2,8.5-9,8.5L170.1,277.9z M161.9,268.6v0.5c0.1,4.5,3.8,8.1,8.4,8.1
	c4.5-0.1,8.1-3.8,8.1-8.4v-0.5l0.5,0.1c2.5,0.7,5.1,0.2,7.2-1.4c3.6-2.8,4.4-7.9,1.6-11.6c-1-1.3-2.4-2.3-4-2.9l-0.5-0.2l0.3-0.5
	c2.5-3.8,1.4-8.9-2.4-11.4c-3.7-2.4-8.6-1.5-11.2,2l-0.3,0.5l-0.3-0.4c-2.8-3.6-8-4.2-11.6-1.4c-3.5,2.7-4.2,7.7-1.6,11.3l0.3,0.4
	l-0.5,0.2c-0.7,0.3-1.4,0.7-2,1.1c-3.6,2.7-4.3,7.9-1.6,11.6c2.1,2.8,5.7,3.9,9.1,2.9L161.9,268.6L161.9,268.6z"/>
<path class="st0" d="M169.8,263.5c-3.5,0-6.4-2.8-6.4-6.4c0-3.5,2.8-6.4,6.4-6.4c3.5,0,6.4,2.8,6.4,6.4c0,2-0.9,3.9-2.5,5.1
	C172.5,263,171.2,263.5,169.8,263.5z M169.8,251.6c-2.8,0-5.1,2.1-5.5,4.8c-0.4,3,1.7,5.8,4.7,6.2c3,0.4,5.8-1.7,6.2-4.7
	c0.4-3-1.7-5.8-4.7-6.2C170.3,251.6,170,251.6,169.8,251.6L169.8,251.6z"/>
<path class="st0" d="M75.4,166.5c-3.5,0-6.4-2.8-6.4-6.4s2.8-6.4,6.4-6.4c0.3,0,0.6,0,0.9,0.1c3.5,0.5,5.9,3.7,5.4,7.2
	C81.2,164.1,78.5,166.5,75.4,166.5z M75.4,154.6c-2.8,0-5.1,2.1-5.5,4.8c-0.4,3,1.7,5.8,4.7,6.2c1.5,0.2,2.9-0.2,4.1-1.1
	c2.4-1.9,2.9-5.4,1-7.8c-0.9-1.2-2.2-1.9-3.6-2.1C75.9,154.6,75.6,154.6,75.4,154.6L75.4,154.6z"/>
<path class="st0" d="M75.7,180.9c-4.7,0-8.6-3.6-9-8.2c-4.9,1.2-9.8-1.7-11.1-6.6c-0.9-3.5,0.4-7.3,3.3-9.5c0.5-0.4,1.1-0.7,1.7-1
	c-2.8-4.2-1.6-9.8,2.6-12.6c3.8-2.5,8.9-1.8,11.8,1.6c0.4-0.6,1-1.1,1.5-1.5c3.9-3,9.6-2.3,12.6,1.6c0,0,0.1,0.1,0.1,0.1
	c2.2,2.9,2.4,6.9,0.6,10c1.6,0.6,2.9,1.7,3.9,3c3,4,2.3,9.7-1.7,12.7c-2.1,1.6-4.8,2.2-7.4,1.7c-0.1,2.7-1.4,5.1-3.6,6.7
	C79.6,180.3,77.7,181,75.7,180.9L75.7,180.9z M67.4,171.6v0.5c0.1,4.5,3.8,8.1,8.4,8.1s8.1-3.8,8.1-8.4l0,0v-0.5l0.5,0.1
	c4.4,1.3,8.9-1.3,10.2-5.7c1.2-4.3-1.2-8.8-5.5-10.1l-0.5-0.2l0.3-0.5c1.9-2.9,1.8-6.7-0.3-9.5c-2.7-3.6-7.9-4.3-11.5-1.6
	c0,0,0,0,0,0c-0.7,0.5-1.2,1.1-1.7,1.8l-0.3,0.5l-0.3-0.5c-2.8-3.6-8-4.1-11.6-1.3c-3.4,2.7-4.1,7.7-1.5,11.2l0.3,0.4l-0.5,0.2
	c-4.3,1.6-6.4,6.3-4.9,10.6c1.5,4.2,6.1,6.4,10.3,5L67.4,171.6L67.4,171.6z"/>
<path class="st0" d="M273.1,253.2c-2.6,0-4.8-2.1-4.8-4.8c0-2.6,2.1-4.8,4.8-4.8c2.6,0,4.8,2.1,4.8,4.8c0,0.2,0,0.4,0,0.6
	c-0.2,1.3-0.8,2.4-1.8,3.2C275.1,252.9,274.1,253.2,273.1,253.2z M273.1,244.5c-2.2,0-3.9,1.8-3.9,3.9c0,0.9,0.3,1.7,0.8,2.4
	c1.3,1.7,3.8,2.1,5.5,0.8s2.1-3.8,0.8-5.5c-0.6-0.8-1.6-1.4-2.6-1.5L273.1,244.5L273.1,244.5z"/>
<path class="st0" d="M273.3,263.8c-3.4,0-6.3-2.6-6.7-6c-3.6,0.9-7.3-1.3-8.2-4.9c-0.7-2.7,0.3-5.5,2.6-7.1c0.4-0.3,0.7-0.5,1.2-0.7
	c-2-3.2-1-7.3,2.1-9.3c2.8-1.7,6.4-1.2,8.6,1.2c0.3-0.4,0.7-0.7,1.1-1c2.9-2.3,7.2-1.8,9.5,1.2c1.7,2.2,1.9,5.1,0.5,7.5
	c3.5,1.4,5.1,5.4,3.7,8.8c-0.5,1.1-1.2,2.1-2.2,2.8c-1.5,1.2-3.5,1.6-5.4,1.2C279.8,261,276.9,263.7,273.3,263.8L273.3,263.8z
	 M267.4,256.7v0.5c0.2,3.3,3,5.8,6.2,5.6c3.1-0.2,5.5-2.7,5.6-5.8v-0.5l0.5,0.1c1.8,0.5,3.7,0.1,5.2-1c2.6-2,3.1-5.7,1.1-8.3
	c-0.7-1-1.7-1.7-2.9-2l-0.5-0.2l0.3-0.5c1.8-2.7,1.1-6.4-1.6-8.2c-2.1-1.4-4.9-1.3-6.9,0.2c-0.5,0.4-0.9,0.8-1.2,1.3l-0.3,0.5
	l-0.3-0.4c-2-2.6-5.7-3.1-8.3-1.1c-2.6,2-3.1,5.7-1.1,8.3l0.3,0.4l-0.5,0.2c-0.5,0.2-1,0.5-1.4,0.8c-2.6,2-3.1,5.7-1.2,8.3
	c1.5,2,4.1,2.8,6.5,2.1L267.4,256.7L267.4,256.7z"/>
<path class="st0" d="M47.2,268.5c-0.5,0-0.9-0.1-1.4-0.2c-1.5-0.4-2.8-1.3-3.7-2.6c-1.7-2.8-0.9-6.4,1.9-8.1
	c2.7-1.7,6.4-0.9,8.1,1.9c0,0,0,0,0,0c1.7,2.8,0.8,6.4-2,8.1C49.4,268.2,48.3,268.4,47.2,268.5L47.2,268.5z M47.2,257.5
	c-0.9,0-1.9,0.3-2.7,0.8c-2.4,1.5-3.1,4.6-1.6,7c1.5,2.4,4.6,3.1,7,1.6c2.4-1.5,3.1-4.6,1.6-7c-0.7-1.1-1.8-2-3.1-2.3
	C48,257.6,47.6,257.5,47.2,257.5L47.2,257.5z"/>
<path class="st0" d="M46.6,281.8c-4.6,0-8.4-3.7-8.4-8.3c-4.6,0.7-8.9-2.5-9.5-7.1c-0.6-4,1.7-7.8,5.5-9.1c-2-3.9-0.7-8.7,3-11
	c3.7-2.3,8.6-1.4,11.2,2.2c0.5-0.5,1-0.9,1.5-1.2c3.9-2.4,9.1-1.2,11.6,2.7c0,0,0,0,0,0c1.8,2.9,1.7,6.5-0.3,9.3
	c1.4,0.7,2.5,1.8,3.3,3.1c2.4,3.9,1.2,9.1-2.7,11.6c-2.1,1.3-4.6,1.6-6.9,0.9C54.2,278.8,50.6,281.8,46.6,281.8L46.6,281.8z
	 M39,272.5v0.5c-0.2,4.2,3,7.7,7.1,8c1.5,0.1,3.1-0.3,4.4-1.1c2-1.2,3.3-3.4,3.5-5.7v-0.5l0.5,0.2c2.2,0.9,4.7,0.6,6.7-0.6
	c3.6-2.2,4.7-6.9,2.5-10.4c-0.8-1.3-2-2.4-3.5-3l-0.5-0.2l0.3-0.4c2-2.5,2.2-6,0.5-8.8c-2.2-3.5-6.8-4.6-10.4-2.5c0,0,0,0,0,0
	c-0.6,0.4-1.2,0.9-1.7,1.5l-0.4,0.4l-0.3-0.5c-2.2-3.6-6.9-4.6-10.4-2.4s-4.6,6.9-2.4,10.4l0.3,0.5l-0.5,0.1
	c-0.7,0.2-1.3,0.5-1.9,0.9c-3.5,2.2-4.6,6.9-2.4,10.5c1.7,2.7,4.9,4.1,8,3.4L39,272.5L39,272.5z"/>
<path class="st0" d="M39.7,212.1c-3.3,0-6-2.7-6-6s2.7-6,6-6s6,2.7,6,6S43,212.1,39.7,212.1z M39.7,201c-2.8,0-5.1,2.3-5.2,5.1
	c0,2.8,2.3,5.1,5.1,5.2c2.8,0,5.1-2.3,5.2-5.1c0,0,0,0,0,0C44.8,203.3,42.5,201,39.7,201z"/>
<path class="st0" d="M117.9,172.7c-2.6,0-4.7-2.1-4.7-4.6s2.1-4.7,4.6-4.7c2.6,0,4.7,2.1,4.7,4.6c0,0,0,0,0,0
	C122.5,170.6,120.5,172.7,117.9,172.7C117.9,172.7,117.9,172.7,117.9,172.7z M117.9,164.2c-2.1,0-3.8,1.7-3.8,3.8
	c0,2.1,1.7,3.8,3.8,3.8c2.1,0,3.8-1.7,3.8-3.8c0,0,0,0,0,0C121.7,165.9,120,164.2,117.9,164.2z"/>
<path class="st0" d="M238.2,174c-1.9,0-3.4-1.5-3.4-3.4c0-1.9,1.5-3.4,3.4-3.4c1.9,0,3.4,1.5,3.4,3.4c0,0,0,0,0,0
	C241.6,172.5,240.1,174,238.2,174z M238.2,168c-1.4,0-2.6,1.1-2.6,2.6c0,1.4,1.1,2.6,2.6,2.6s2.6-1.1,2.6-2.6c0,0,0,0,0,0
	C240.7,169.2,239.6,168.1,238.2,168L238.2,168z"/>
<path class="st0" d="M43.9,236.1c-3.5,0.1-7-0.8-10.1-2.6c-6.3-4.1-8-12.5-8.1-12.9l-0.1-0.4l0.4-0.1c0.4-0.1,8.7-2,15,2.2
	s8,12.5,8.1,12.9l0.1,0.4l-0.4,0.1C47.2,236,45.5,236.2,43.9,236.1L43.9,236.1z M26.6,220.8c0.4,1.7,2.4,8.5,7.6,11.9
	s12.2,2.5,14,2.1c-0.4-1.7-2.4-8.5-7.6-11.9S28.4,220.5,26.6,220.8z"/>
<path class="st0" d="M93.5,184.4l-0.1-0.4c-0.1-0.4-1.9-8.7,2.2-15.1s12.5-8,12.8-8.1l0.4-0.1l0.1,0.4c0.1,0.4,1.9,8.7-2.2,15
	s-12.5,8-12.8,8.1L93.5,184.4z M108.1,161.8c-1.7,0.4-8.5,2.4-11.9,7.6s-2.5,12.3-2.1,14c1.7-0.4,8.5-2.4,11.9-7.6
	S108.4,163.5,108.1,161.8L108.1,161.8z"/>
<path class="st0" d="M33.2,91.3c0.6,0,1-0.4,1-1s-0.4-1-1-1s-1,0.4-1,1S32.7,91.3,33.2,91.3z"/>
<path class="st0" d="M48,93.6c0.6,0,1-0.4,1-1s-0.4-1-1-1s-1,0.4-1,1S47.5,93.6,48,93.6z"/>
<path class="st0" d="M40.4,93.7l-2.9,0.7l0.2,0.8l2.9-0.7L40.4,93.7z"/>
<path class="st0" d="M40.5,93.7L40,94.4l2.4,1.8l0.5-0.7L40.5,93.7z"/>
<path class="st0" d="M137.5,174.6l-0.5-0.5c-50.9-46.5-124.6-47.9-125.3-47.9L1.5,126c-0.8,0-1.5-0.7-1.5-1.5c0-0.5,0.2-0.9,0.6-1.2
	l18-9.6l11.5-41.9c0.2-0.6,0.9-1,1.5-0.8c0.5,0.1,0.8,0.6,0.8,1c0.1,0.7,0.2,1.4,0.4,2.1c1.5,5.1,5.8,8.9,11.1,9.6
	c5.5,0.7,10.9-2.1,13.5-7.1c0.3-0.5,0.8-0.8,1.4-0.6c0.5,0.1,0.9,0.6,0.9,1.1l0.6,20.6c5,1.2,9.9,2.5,14.6,4
	c20.8,6.5,39.4,15.5,55.1,26.9c3.4,2.5,6.2,5.7,8.2,9.5c4.4-1.9,7.7-5.6,9.1-10.2c1.3-4.4,0.3-9.1-2.7-13.6c-2.1-3.1-2.8-6.2-2-9.2
	c1.6-5.6,8-9.1,10.7-10.3c1.2-0.6,2.7,0,3.3,1.2c0.1,0.2,0.2,0.5,0.2,0.8c0.1,0.9-0.4,1.8-1.2,2.3c-2.9,1.8-6.4,4.7-7.3,8.6
	c-0.5,2.5,0.1,5.2,2,7.9c4.5,6.7,3.7,12.2,2.3,15.8c-2.3,5.4-7.1,9.3-12.8,10.5c1.5,4.5,1.8,9.2,1,13.9L137.5,174.6L137.5,174.6z
	 M31.4,71.8c-0.2,0-0.3,0.1-0.3,0.2l-11.6,42.3L1.1,124c-0.2,0.2-0.3,0.4-0.2,0.7c0.1,0.3,0.3,0.5,0.6,0.5l10.2,0.2
	c0.7,0,74.2,1.4,125.3,47.6l3.2-17.1c0.9-4.6,0.5-9.4-1.1-13.9l-0.1-0.5l0.5-0.1c5.6-1.1,10.4-4.9,12.7-10.1c1.3-3.3,2-8.6-2.2-15
	c-2-2.9-2.7-5.8-2.1-8.6c0.9-4.2,4.7-7.3,7.7-9.2c0.5-0.3,0.8-0.9,0.8-1.5c-0.1-0.9-0.9-1.6-1.8-1.5c-0.2,0-0.4,0.1-0.6,0.1
	c-2,0.9-8.7,4.4-10.3,9.8c-0.8,2.7-0.1,5.6,1.8,8.5c3.2,4.7,4.2,9.7,2.8,14.3c-1.6,4.9-5.2,8.9-9.9,10.8l-0.4,0.1l-0.2-0.4
	c-1.9-3.8-4.7-7-8.1-9.5c-15.7-11.4-34.2-20.4-54.9-26.8c-4.9-1.4-9.9-2.8-14.9-4l-0.3-0.1l-0.6-21.3c0-0.2-0.1-0.3-0.3-0.4
	c-0.2,0-0.4,0-0.4,0.2c-2.7,5.3-8.4,8.3-14.3,7.5c-5.6-0.7-10.2-4.7-11.8-10.2c-0.2-0.7-0.4-1.5-0.5-2.2
	C31.7,71.9,31.6,71.8,31.4,71.8L31.4,71.8L31.4,71.8z"/>
<path class="st2" d="M42.5,118.5l-18.2,9.6c-0.5,0.3-0.6,1-0.3,1.5c0.2,0.3,0.5,0.4,0.9,0.5l25,0.9"/>
<path class="st0" d="M49.9,131.3L25,130.4c-0.8,0-1.5-0.7-1.4-1.5c0-0.5,0.2-0.9,0.6-1.2l18.2-9.6l0.4,0.7l-18.2,9.6
	c-0.3,0.2-0.3,0.7,0,0.9c0.1,0.1,0.3,0.2,0.5,0.2l25,0.9L49.9,131.3L49.9,131.3z"/>
<path class="st2" d="M134.5,155.8l6.9,19.4c0.1,0.6-0.3,1.1-0.8,1.2c-0.3,0.1-0.7,0-0.9-0.2l-19.4-15.9"/>
<path class="st0" d="M140.3,176.9c-0.4,0-0.7-0.1-1-0.4L120,160.6l0.5-0.6l19.4,15.9c0.3,0.2,0.7,0.2,0.9,0c0.1-0.2,0.2-0.4,0.2-0.6
	l-6.9-19.4l0.8-0.3l6.9,19.4c0.2,0.6-0.1,1.3-0.7,1.6C140.8,176.8,140.5,176.9,140.3,176.9L140.3,176.9z"/>
<path class="st0" d="M261,115.2c0.2,0,0.4-0.1,0.5-0.2c0.8-2.3,1.9-5.7,3.4-10c0.1-0.1,0-0.3-0.1-0.3c0,0,0,0-0.1,0
	c-3-1-6.2-2.1-9.4-3.3c-0.3-0.1-0.4-0.3-0.4-0.6c0,0,0-0.1,0-0.1c0.1-0.4,0.3-0.5,0.7-0.4c3.3,1.2,6.4,2.3,9.4,3.3
	c0.2,0.1,0.3,0,0.4-0.1c0.6-1.7,1.5-4.2,2.8-7.7c0.1-0.3,0.5-0.4,0.8-0.3c0.3,0.1,0.4,0.4,0.3,0.7c-1.2,3.4-2.2,5.9-2.8,7.6
	c0,0.1,0,0.3,0.2,0.4c6.9,2.3,14.6,4.5,23.3,6.6c0.3,0.1,0.5,0.3,0.4,0.7s-0.3,0.5-0.6,0.4c-8.8-2.1-16.6-4.3-23.5-6.6
	c-0.2-0.1-0.3,0-0.4,0.2c-1.5,4.2-2.6,7.3-3.3,9.4c-0.1,0.2,0,0.3,0.2,0.3c3.7,0.1,7.3,0.8,10.7,2.1c5,1.9,8.6,4.5,10.8,7.8
	c2.2,3.1,2.6,7.1,1.2,10.6c-1.3,3.5-4,6.3-7.5,7.6c-3.7,1.5-8.1,1.9-13.2,1c-0.3,0-0.5-0.3-0.5-0.5c0,0,0-0.1,0-0.1
	c0-0.3,0.3-0.5,0.6-0.5c0.1,0,0.1,0,0.2,0c4.9,0.8,9,0.5,12.5-0.9c3.3-1.2,5.8-3.7,7-7c1-2.5,0.9-5.3-0.1-7.7
	c-1.2-2.7-3.2-5-5.8-6.6c-0.1-0.1-0.3-0.1-0.5,0c0,0,0,0,0,0.1c-4.8,5.1-10.7,9.2-17.2,11.9c-6.1,2.4-10.9,3-14.4,1.7
	c-1.7-0.5-3-1.7-3.7-3.3c-0.6-1.7-0.5-3.6,0.2-5.3c1.3-3.2,3.6-5.8,6.5-7.5C253,116.4,256.9,115.2,261,115.2L261,115.2z
	 M260.9,116.5c0-0.1,0-0.2-0.2-0.2c-3.7,0.1-7.3,1.2-10.5,3.1c-2.7,1.6-4.8,4-6,6.9c-0.6,1.4-0.7,3-0.2,4.4c0.6,1.3,1.7,2.3,3.1,2.7
	c2,0.8,4.8,0.8,8.2,0.1c0.2,0,0.4-0.2,0.4-0.4C257.7,126.4,259.4,120.8,260.9,116.5L260.9,116.5z M262.5,116.2
	c-0.2,0-0.3,0.1-0.4,0.2c-1.9,5.7-3.7,11.2-5.3,16.4c0,0,0,0.1,0,0.1c0,0.1,0.1,0.1,0.2,0.1c3.6-1.1,7.1-2.6,10.2-4.7
	c3.6-2.2,7-4.9,10-7.9c0.2-0.2,0.2-0.3,0-0.4c-1.3-0.7-2.6-1.3-4-1.8C269.8,117,266.1,116.3,262.5,116.2L262.5,116.2z"/>
<path class="st2" d="M154.5,77.4c-17.6-8.5-23.7,10.2-24.2,11.8c-0.5,0-0.9,0.1-1.4,0.2l-5,2.3l-2.4,1.1l-5,2.3
	c-0.4,0.2-0.8,0.5-1.1,0.9c-1.5-0.7-19.6-8.3-24.7,10.6c-5.4,19.7,24.1,72.2,33,25.8l28.6-13.1C193.3,142.9,173,86.2,154.5,77.4
	L154.5,77.4z"/>
<path class="st0" d="M112.2,151.4c-2.5,0-5.2-1.4-7.9-4c-8.7-8.4-17-29.4-13.8-41c1.5-5.7,4.4-9.6,8.5-11.6
	c6.7-3.2,14.6-0.2,16.4,0.5c0.3-0.3,0.6-0.6,1-0.7l12.4-5.7c0.4-0.2,0.8-0.3,1.2-0.3c0.6-1.9,3.6-9.8,10.4-12.8
	c4.2-1.9,9-1.5,14.3,1.1c10.8,5.2,21.2,25.2,21.8,37.3c0.2,4.8-1,8.3-3.7,9.9c-4,2.5-10.9,1-20.5-4.5l-28.2,12.9
	c-2.1,10.8-5.5,17-10,18.5C113.5,151.3,112.8,151.4,112.2,151.4L112.2,151.4z M105.8,94.3c-2.3,0-4.5,0.4-6.5,1.4
	c-3.9,1.9-6.6,5.6-8.1,11c-3,11.1,5.1,32,13.6,40.2c2.3,2.2,5.7,4.5,9.1,3.5c4.2-1.3,7.4-7.6,9.5-18v-0.2l29-13.3l0.2,0.1
	c9.2,5.3,16,6.9,19.8,4.6c3-1.9,3.5-6,3.3-9.2c-0.6-11.8-11.1-31.6-21.4-36.6c-5.1-2.4-9.7-2.8-13.6-1.1c-6.9,3.1-9.7,11.6-10,12.6
	l-0.1,0.3h-0.3c-0.4,0-0.8,0-1.1,0.2l-12.4,5.6c-0.4,0.2-0.7,0.4-0.9,0.7l-0.2,0.3l-0.3-0.1C112.3,95.1,109.1,94.4,105.8,94.3
	L105.8,94.3z"/>
<path class="st2" d="M106.1,115.6c3.3,0,5.9-2.6,5.9-5.9c0-3.3-2.6-5.9-5.9-5.9s-5.9,2.6-5.9,5.9c0,0,0,0,0,0
	C100.2,112.9,102.8,115.6,106.1,115.6z"/>
<path class="st0" d="M106.1,116c-3.5,0-6.3-2.8-6.3-6.3c0-0.7,0.1-1.5,0.4-2.2c1.2-3.3,4.8-4.9,8.1-3.7c1.6,0.6,2.9,1.8,3.6,3.3
	c1.4,3.2,0,6.9-3.1,8.4C107.9,115.8,107,116,106.1,116L106.1,116z M106.1,104.2c-0.8,0-1.6,0.2-2.3,0.5c-1.3,0.6-2.4,1.7-2.9,3.1
	c-0.5,1.4-0.4,2.9,0.1,4.2c1.3,2.7,4.5,4,7.2,2.7c0,0,0,0,0,0c1.3-0.6,2.4-1.7,2.9-3.1c0.5-1.4,0.5-2.9-0.1-4.2
	C110.2,105.4,108.2,104.2,106.1,104.2L106.1,104.2z"/>
<path class="st2" d="M145.7,114.3c3.3,0,5.9-2.6,5.9-5.9c0-3.3-2.6-5.9-5.9-5.9s-5.9,2.6-5.9,5.9c0,0,0,0,0,0
	C139.8,111.7,142.4,114.3,145.7,114.3C145.7,114.3,145.7,114.3,145.7,114.3z"/>
<path class="st0" d="M145.7,114.7c-3.5,0-6.3-2.8-6.3-6.3c0-3.5,2.8-6.3,6.3-6.3c3.5,0,6.3,2.8,6.3,6.3c0,2.5-1.4,4.7-3.7,5.8
	C147.5,114.5,146.6,114.7,145.7,114.7z M145.7,102.9c-2.3,0-4.3,1.4-5.1,3.6c-0.5,1.4-0.4,2.9,0.2,4.2c1.3,2.7,4.5,3.9,7.2,2.7
	c2.8-1.3,4-4.5,2.7-7.3C149.8,104.2,147.8,102.9,145.7,102.9L145.7,102.9z"/>
<path class="st2" d="M123.4,116.6l-2.3,1.1l-1.1-2.3c-0.4-0.9-1.6-1.4-2.5-0.9c-0.9,0.4-1.4,1.6-0.9,2.5l0,0l1.1,2.3l-2.3,1.1
	c-0.9,0.4-1.4,1.5-0.9,2.5s1.5,1.4,2.5,0.9l0,0l2.3-1.1l1.1,2.3c0.4,0.9,1.6,1.4,2.5,0.9c0.9-0.4,1.4-1.6,0.9-2.5l-1.1-2.3l2.4-1.1
	c0.9-0.4,1.4-1.5,0.9-2.5S124.3,116.1,123.4,116.6L123.4,116.6z"/>
<path class="st0" d="M122,126.5c-0.9,0-1.7-0.5-2.1-1.3l-0.9-2l-2,0.9c-1.2,0.5-2.5,0-3-1.1c-0.5-1.2,0-2.5,1.1-3.1l0,0l2-0.9
	l-0.9-2c-0.5-1.1,0-2.5,1.1-3c0.6-0.3,1.2-0.3,1.8-0.1c0.6,0.2,1,0.7,1.3,1.2l0.9,2l2-0.9c1.2-0.5,2.5,0.1,3,1.3
	c0.4,1.1,0,2.4-1.1,2.9l-2,0.9l0.9,1.9c0.3,0.6,0.3,1.2,0.1,1.8C123.7,125.9,122.9,126.5,122,126.5z M119.4,122.1l1.2,2.7
	c0.3,0.7,1.2,1.1,1.9,0.7c0,0,0,0,0,0c0.4-0.2,0.6-0.5,0.8-0.8c0.1-0.4,0.1-0.8,0-1.1l-1.2-2.7l2.7-1.2c0.7-0.3,1.1-1.2,0.7-2
	c0,0,0,0,0,0c-0.3-0.7-1.2-1.1-1.9-0.7c0,0,0,0,0,0l-2.7,1.2l-1.3-2.7c-0.2-0.4-0.5-0.6-0.8-0.8c-0.4-0.2-0.8-0.2-1.1,0
	c-0.7,0.3-1.1,1.2-0.7,1.9l1.2,2.7l-2.7,1.2c-0.7,0.3-1.1,1.2-0.7,2c0.3,0.7,1.2,1.1,2,0.7l0,0L119.4,122.1z"/>
<path class="st2" d="M146.2,88.3c1.1,0,1.9-0.9,1.9-1.9s-0.9-1.9-1.9-1.9s-1.9,0.9-1.9,1.9S145.1,88.3,146.2,88.3L146.2,88.3z"/>
<path class="st0" d="M146.2,88.7c-0.9,0-1.8-0.5-2.1-1.4c-0.3-0.6-0.3-1.2-0.1-1.8c0.2-0.6,0.7-1.1,1.2-1.3c1.2-0.5,2.6,0,3.1,1.1
	c0,0,0,0,0,0c0.3,0.6,0.3,1.2,0.1,1.8c-0.2,0.6-0.7,1.1-1.2,1.3C146.8,88.6,146.5,88.7,146.2,88.7z M146.2,84.8
	c-0.2,0-0.4,0-0.6,0.1c-0.8,0.4-1.1,1.2-0.7,2c0.3,0.8,1.2,1.1,2,0.8c0,0,0,0,0,0c0.8-0.4,1.1-1.3,0.7-2c-0.2-0.4-0.5-0.6-0.8-0.8
	C146.5,84.8,146.3,84.8,146.2,84.8L146.2,84.8z"/>
<path class="st2" d="M143.7,94.4c1.1,0,1.9-0.9,1.9-1.9s-0.9-1.9-1.9-1.9s-1.9,0.9-1.9,1.9C141.8,93.5,142.6,94.4,143.7,94.4
	C143.7,94.4,143.7,94.4,143.7,94.4z"/>
<path class="st0" d="M143.7,94.8c-1.3,0-2.4-1-2.4-2.3c0-1.3,1-2.4,2.3-2.4c0.9,0,1.8,0.5,2.1,1.4c0.3,0.6,0.3,1.2,0.1,1.8
	c-0.2,0.6-0.7,1.1-1.2,1.3C144.4,94.7,144,94.8,143.7,94.8L143.7,94.8z M143.7,90.9c-0.2,0-0.4,0-0.6,0.1c-0.8,0.3-1.1,1.3-0.8,2
	c0.3,0.8,1.3,1.1,2,0.8l0,0c0.4-0.2,0.7-0.5,0.8-0.9c0.1-0.4,0.1-0.8,0-1.2C144.9,91.3,144.3,90.9,143.7,90.9L143.7,90.9z"/>
<path class="st2" d="M152.5,90.8c1.1,0,1.9-0.9,1.9-1.9c0-1.1-0.9-1.9-1.9-1.9c-1.1,0-1.9,0.9-2,1.9c0,0,0,0,0,0
	C150.6,89.9,151.5,90.8,152.5,90.8z"/>
<path class="st0" d="M152.5,91.2c-1.3,0-2.3-1.1-2.3-2.4c0-0.3,0.1-0.6,0.1-0.8c0.4-1.2,1.8-1.8,3-1.4c0.6,0.2,1.1,0.7,1.3,1.2
	c0.3,0.6,0.3,1.2,0.1,1.8c-0.2,0.6-0.7,1.1-1.2,1.3C153.2,91.1,152.9,91.2,152.5,91.2z M152.5,87.3c-0.2,0-0.4,0-0.6,0.1
	c-0.4,0.2-0.6,0.5-0.8,0.9c-0.1,0.4-0.1,0.8,0,1.2c0.4,0.8,1.3,1.1,2,0.7c0.7-0.4,1-1.2,0.7-1.9c-0.2-0.4-0.5-0.7-0.8-0.8
	C152.9,87.4,152.7,87.3,152.5,87.3L152.5,87.3z"/>
<path class="st2" d="M150.1,96.9c1.1,0,1.9-0.9,1.9-1.9c0-1.1-0.9-1.9-1.9-1.9c-1.1,0-1.9,0.9-2,1.9c0,0,0,0,0,0
	C148.2,96,149,96.9,150.1,96.9z"/>
<path class="st0" d="M150.1,97.3c-1.3,0-2.3-1.1-2.3-2.4c0-1.3,1.1-2.3,2.4-2.3s2.3,1.1,2.3,2.4c0,0.9-0.5,1.7-1.4,2.1
	C150.8,97.3,150.4,97.3,150.1,97.3L150.1,97.3z M150.1,93.4c-0.2,0-0.4,0-0.6,0.1c-0.8,0.3-1.1,1.2-0.8,2s1.2,1.1,2,0.8
	c0.8-0.3,1.1-1.2,0.8-2c0,0,0,0,0,0C151.2,93.8,150.7,93.4,150.1,93.4L150.1,93.4z"/>
<path class="st3" d="M136.2,116.4l-3.9,1.8c-0.3,0.1-0.4,0.4-0.3,0.7c0.1,0.3,0.4,0.4,0.7,0.3c0,0,0,0,0,0l3.9-1.8
	c0.3-0.1,0.4-0.4,0.3-0.7C136.8,116.4,136.5,116.3,136.2,116.4C136.3,116.4,136.3,116.4,136.2,116.4z"/>
<path class="st0" d="M132.6,119.6c-0.1,0-0.2,0-0.3-0.1c-0.2-0.1-0.4-0.3-0.5-0.5c-0.1-0.2-0.1-0.5,0-0.7c0.1-0.2,0.3-0.4,0.5-0.5
	l3.9-1.8c0.2-0.1,0.5-0.1,0.7,0c0.2,0.1,0.4,0.3,0.5,0.5c0.2,0.5,0,1-0.5,1.2l-3.9,1.7C132.8,119.6,132.7,119.6,132.6,119.6
	L132.6,119.6z M136.4,116.8l-3.9,1.8c0,0-0.1,0.1,0,0.1l0.1,0.1l3.9-1.8C136.6,116.9,136.6,116.9,136.4,116.8L136.4,116.8z"/>
<path class="st2" d="M158.8,236.6L77,261.8c-2,0.7-4.3-0.3-5-2.4c0-0.1,0-0.1-0.1-0.2l-13.6-51.8c-0.5-2.2,0.8-4.4,3-5.1l81.8-25.2
	c2-0.7,4.2,0.4,4.9,2.4c0,0.1,0,0.1,0.1,0.2l13.7,51.8C162.3,233.7,161,236,158.8,236.6z"/>
<path class="st0" d="M75.7,262.4c-0.8,0-1.5-0.2-2.2-0.6c-1-0.5-1.7-1.5-2-2.5L58,207.5c-0.5-2.4,0.9-4.9,3.3-5.6l81.8-25.2
	c1.2-0.4,2.5-0.3,3.6,0.3c1,0.5,1.7,1.4,2,2.5l13.6,51.8c0.5,2.4-0.9,4.9-3.3,5.6l-81.8,25.2C76.7,262.3,76.2,262.4,75.7,262.4z
	 M144.5,177.3c-0.4,0-0.8,0.1-1.2,0.2l-81.8,25.2c-2,0.6-3.2,2.6-2.8,4.6l13.6,51.8c0.2,0.9,0.8,1.6,1.6,2c0.9,0.5,2,0.6,3,0.3
	l81.8-25.2c2-0.6,3.2-2.6,2.8-4.6l-13.6-51.8c-0.2-0.9-0.8-1.6-1.6-2C145.7,177.5,145.1,177.3,144.5,177.3L144.5,177.3z"/>
<path class="st2" d="M118,248.6c0,0,10.8-7.6,21.7-11.8c2.8-1.1,9.6-3.1,13.9-4.4c2.1-0.6,3.3-2.7,2.8-4.8l-13.6-51.8
	c-0.5-1.6-2.2-2.6-3.8-2.1c-0.2,0.1-0.4,0.1-0.6,0.2l-35.7,17.2L118,248.6z"/>
<path class="st0" d="M117.8,249.3l-15.5-58.4l36-17.3c1-0.5,2.1-0.5,3.2,0c0.9,0.4,1.6,1.2,1.8,2.2l13.6,51.8
	c0.5,2.3-0.8,4.7-3.1,5.3c-3.9,1.1-11,3.2-13.9,4.4c-10.7,4.1-21.5,11.7-21.6,11.8L117.8,249.3L117.8,249.3z M103.2,191.3l15,56.6
	c2.2-1.5,11.8-7.9,21.3-11.5c2.8-1.1,9.1-3,13.9-4.4c1.9-0.5,3-2.4,2.5-4.3l-13.6-51.8c-0.2-0.7-0.7-1.3-1.4-1.7
	c-0.8-0.4-1.7-0.4-2.4,0L103.2,191.3L103.2,191.3z"/>
<path class="st2" d="M64.1,197.4c-1.9,0.3-3.2,2-2.9,3.9c0,0.1,0,0.2,0.1,0.3l13.6,51.8c0.5,1.9,2.5,3.1,4.5,2.5
	c0.1,0,0.2-0.1,0.3-0.1c4.3-1.4,11-3.5,13.9-4.2c11.3-2.7,24.2-2.4,24.2-2.4l-15-57.6L64.1,197.4L64.1,197.4z"/>
<path class="st0" d="M78.4,256.3c-0.7,0-1.4-0.2-2-0.5c-1-0.5-1.6-1.4-1.9-2.5l-13.6-51.8c-0.2-1-0.1-2.1,0.5-2.9
	c0.6-0.9,1.6-1.6,2.7-1.7l39.1-5.9l15.2,58.4h-0.5c-0.1,0-13-0.3-24.1,2.4c-3,0.7-10,3-13.9,4.2C79.3,256.2,78.8,256.3,78.4,256.3
	L78.4,256.3z M102.5,192l-38.3,5.8c-0.9,0.1-1.6,0.6-2.1,1.4c-0.4,0.7-0.6,1.5-0.4,2.2l13.6,51.8c0.2,0.8,0.8,1.5,1.5,1.9
	c0.8,0.4,1.8,0.5,2.7,0.2c4.8-1.6,11.1-3.6,14-4.2c9.9-2.4,21.2-2.4,23.8-2.4L102.5,192z"/>
<path class="st2" d="M116.5,179.3c-11.4,7.6-13.4,11.1-13.7,12.2c-0.8-0.7-4.2-2.5-17.6-2.5c-6-0.1-11.9,0.9-17.6,2.9
	c-1.7,0.6-2.7,2.5-2.3,4.3l13.2,50.3c0.4,1.6,2,2.6,3.7,2.3c2.5-0.4,7.4-1,16.4-1.7c6.4-0.5,12.9,0.2,19.1,2.1c0,0,0.1,0.2,0.2,0.1
	l0.2,0.1c4.3-5.1,9.5-9.4,15.2-12.9c7.2-4.1,11.4-6.4,13.9-7.5c2-0.9,3.1-3.1,2.5-5.2l-12.7-48.4c-0.7-2.4-3.1-3.7-5.5-3
	c-0.1,0-0.1,0-0.2,0C126.1,173.8,121.1,176.2,116.5,179.3z"/>
<path class="st0" d="M118.3,249.7l-0.3-0.1h-0.1c-0.1,0-0.3-0.1-0.4-0.1c-6.1-1.8-12.5-2.5-18.9-2c-9.3,0.7-14,1.3-16.3,1.7
	c-1.8,0.4-3.6-0.8-4.1-2.6L65,196.3c-0.5-2,0.6-4,2.5-4.8c5.7-2,11.7-3,17.7-2.9l0,0c11.6,0,15.8,1.3,17.4,2.3
	c0.8-1.6,3.6-5.1,13.6-11.9c4.6-3.2,9.7-5.7,15.1-7.3c1.3-0.4,2.7-0.2,3.9,0.5c1.1,0.6,1.9,1.7,2.2,2.9l12.7,48.4
	c0.6,2.3-0.6,4.7-2.8,5.7c-3.2,1.5-7.8,4-13.9,7.5c-5.7,3.4-10.7,7.7-15.1,12.7L118.3,249.7L118.3,249.7z M118,248.7
	c4.3-5,9.4-9.3,15.1-12.8c6.1-3.5,10.8-6.1,14-7.6c1.8-0.8,2.8-2.8,2.3-4.8l-12.7-48.4c-0.3-1-0.9-1.9-1.8-2.4
	c-1-0.6-2.2-0.7-3.3-0.4c-5.3,1.6-10.3,4-14.9,7.2c-11.5,7.7-13.3,11.1-13.5,12l-0.2,0.6l-0.5-0.4c-0.6-0.6-3.8-2.4-17.3-2.4l0,0
	c-5.9-0.1-11.8,0.9-17.4,2.9c-1.5,0.6-2.4,2.2-2,3.8l13.2,50.3c0.4,1.4,1.8,2.3,3.2,2c3.3-0.6,9-1.2,16.4-1.7
	c6.5-0.5,13,0.2,19.2,2.1L118,248.7L118,248.7z"/>
<path class="st0" d="M103.2,191.4l-0.8,0.2l15,56.9l0.8-0.2L103.2,191.4z"/>
<path class="st0" d="M85.7,240.6c-1.9,0-3.5-1.3-4-3.1l-8.9-33.6c-0.6-2.4,0.8-4.9,3.2-5.6c3.5-1,7.1-1.5,10.7-1.4
	c6.9,0.1,10.1,0.8,11.5,1.4c0.5,0.2,0.9,0.7,1.1,1.3l10.1,38.5c0.2,0.7,0,1.4-0.5,2c-0.5,0.5-1.2,0.7-1.9,0.6
	c-3.5-0.8-7-1.1-10.5-0.9c-4.4,0.3-7.8,0.6-10.1,0.9C86.1,240.6,85.9,240.6,85.7,240.6L85.7,240.6z M86.2,197.6
	c-3.4,0-6.7,0.4-9.9,1.4c-2,0.6-3.1,2.6-2.6,4.6l8.9,33.6c0.4,1.7,2,2.7,3.7,2.5c2.4-0.3,5.9-0.6,10.2-0.9c3.6-0.2,7.3,0.1,10.8,0.9
	c0.4,0.1,0.8,0,1.1-0.3c0.3-0.3,0.4-0.7,0.3-1.1l-10.1-38.5c-0.1-0.3-0.3-0.6-0.6-0.7c-1.4-0.6-4.4-1.3-11.2-1.4L86.2,197.6
	L86.2,197.6z"/>
<path class="st0" d="M101,210.8l-25.2,0.9v0.8l25.2-0.9V210.8z"/>
<path class="st0" d="M81.4,197.4l-0.8,0.2L84,212l0.8-0.2L81.4,197.4z"/>
<path class="st0" d="M106.3,226.2l-26.4,1.5v0.8l26.4-1.5V226.2z"/>
<path class="st0" d="M97,227.5l-4.2,11.4l0.8,0.3l4.2-11.4L97,227.5z"/>
<path class="st0" d="M120.4,236.3c-0.2,0-0.3,0-0.5-0.1c-0.7-0.2-1.2-0.7-1.4-1.4l-10.1-38.5c-0.1-0.6,0-1.2,0.3-1.6
	c0.9-1.3,3.2-3.8,9.1-7.8c3-2.1,6.3-3.8,9.7-4.9c2.2-0.7,4.6,0.4,5.4,2.7c0,0.1,0.1,0.2,0.1,0.3l8.9,33.7c0.5,2.1-0.5,4.3-2.4,5.2
	c-2.2,1.1-5.2,2.8-9.1,5c-3.1,1.9-6,4.1-8.6,6.8C121.4,236,120.9,236.3,120.4,236.3z M128.8,182.6c-0.4,0-0.8,0.1-1.1,0.2
	c-3.4,1.1-6.6,2.8-9.5,4.8c-5.7,3.9-8,6.3-8.9,7.6c-0.2,0.3-0.3,0.7-0.2,1l10.1,38.5c0.1,0.4,0.4,0.7,0.8,0.8c0.4,0.1,0.8,0,1.1-0.3
	c2.6-2.7,5.5-5,8.7-6.9c3.8-2.3,6.9-4,9.1-5.1c1.6-0.8,2.4-2.6,2-4.3l-8.9-33.6C131.8,183.7,130.4,182.6,128.8,182.6L128.8,182.6z"
	/>
<path class="st0" d="M134.2,193.5l-21.9,13.6l0.4,0.7l21.8-13.6L134.2,193.5z"/>
<path class="st0" d="M138.6,209.3l-23.2,13.9l0.4,0.7L139,210L138.6,209.3z"/>
<path class="st0" d="M130,211.8c-0.5,0-1-0.1-1.5-0.4c-1.4-0.9-2.4-2.4-2.8-4.1c-0.8-3.1,0.1-6,2.1-6.6c0.8-0.2,1.6-0.1,2.2,0.3
	c1.4,0.9,2.5,2.4,2.8,4.1c0.8,3.1-0.1,6-2.1,6.6C130.5,211.8,130.3,211.8,130,211.8L130,211.8z M128.6,201.5c-0.2,0-0.3,0-0.5,0.1
	c-1.5,0.5-2.2,3-1.6,5.6c0.3,1.5,1.2,2.7,2.4,3.6c0.5,0.3,1,0.4,1.6,0.2c1.5-0.5,2.2-3,1.6-5.6c-0.3-1.5-1.2-2.7-2.4-3.6
	C129.4,201.6,129,201.5,128.6,201.5z"/>
<path class="st0" d="M119.8,218.5c-0.5,0-1-0.1-1.5-0.4c-0.9-0.5-1.5-1.4-1.8-2.4c-0.6-1.8,0.4-3.8,2.1-4.5c0.8-0.2,1.6-0.1,2.3,0.3
	c0.9,0.5,1.5,1.4,1.8,2.4c0.6,1.8-0.3,3.8-2.1,4.5C120.4,218.5,120.1,218.5,119.8,218.5z M119.6,211.9c-0.2,0-0.4,0-0.6,0.1
	c-1.4,0.6-2.1,2.1-1.6,3.5c0.2,0.8,0.7,1.5,1.4,1.9c0.5,0.3,1.1,0.4,1.6,0.2c1.4-0.6,2.1-2.1,1.6-3.5c-0.2-0.8-0.7-1.4-1.4-1.9
	C120.3,212,120,211.9,119.6,211.9L119.6,211.9z"/>
<path class="st0" d="M95,208.9c-0.5,0-0.9-0.1-1.3-0.4c-1.2-0.8-2-2-2.3-3.3c-0.7-2.5,0.2-5,1.9-5.5c0.7-0.2,1.4-0.1,2,0.3
	c1.2,0.8,2,2,2.3,3.3c0.7,2.5-0.2,5-1.9,5.5C95.4,208.9,95.2,208.9,95,208.9L95,208.9z M94,200.5c-0.1,0-0.3,0-0.4,0.1
	c-1.3,0.4-1.9,2.4-1.3,4.5c0.2,1.2,0.9,2.2,1.9,2.8c0.4,0.2,0.9,0.3,1.3,0.2c1.3-0.4,1.9-2.4,1.3-4.5c-0.2-1.2-0.9-2.2-1.9-2.8
	C94.6,200.6,94.3,200.5,94,200.5z"/>
<path class="st0" d="M84.7,225.4l-2.8-10.5l7.5-0.5l2.4,10.5L84.7,225.4z M83,215.6l2.3,8.9l5.5-0.4l-2-8.9L83,215.6L83,215.6z"/>
<path class="st1" d="M84,13.3c3.6,0,6.4-2.9,6.5-6.4c0-3.6-2.9-6.4-6.4-6.5s-6.4,2.9-6.5,6.4c0,0,0,0,0,0
	C77.6,10.4,80.5,13.3,84,13.3L84,13.3z"/>
<path class="st1" d="M84,13.7c-3.8,0-6.9-3.1-6.9-6.8S80.2,0,84,0c3.8,0,6.9,3.1,6.9,6.8c0,0,0,0,0,0C90.9,10.6,87.8,13.7,84,13.7z
	 M84,0.8c-3.3,0-6,2.7-6,6c0,3.3,2.7,6,6,6s6-2.7,6-6C90,3.5,87.3,0.8,84,0.8C84,0.8,84,0.8,84,0.8z"/>
<path class="st0" d="M248.5,78.7c-4.1,0-7.4-3.3-7.4-7.3c0-4.1,3.3-7.4,7.3-7.4c4.1,0,7.4,3.3,7.4,7.3c0,0,0,0,0,0
	C255.8,75.4,252.5,78.7,248.5,78.7z M248.5,64.9c-3.6,0-6.5,2.9-6.6,6.5c0,3.6,2.9,6.5,6.5,6.6c3.6,0,6.5-2.9,6.6-6.5c0,0,0,0,0,0
	C255,67.8,252.1,64.9,248.5,64.9z"/>
</svg>
