<svg id="圖層_1" data-name="圖層 1" xmlns="http://www.w3.org/2000/svg" viewBox="0 0 40.23 39.67"><defs><style>.cls-1{fill:#d1542e;}</style></defs><title>flower</title><path class="cls-1" d="M528.2,378.45a6.4,6.4,0,0,1,0-12.8,2.77,2.77,0,0,1,.9.1,6.34,6.34,0,0,1,5.4,7.2A6.52,6.52,0,0,1,528.2,378.45Zm0-11.9a5.59,5.59,0,0,0-5.5,4.8,5.49,5.49,0,0,0,8.8,5.1,5.57,5.57,0,0,0,1-7.8,5.4,5.4,0,0,0-3.6-2.1Z" transform="translate(-508.12 -353.19)"/><path class="cls-1" d="M528.5,392.85a9,9,0,0,1-9-8.2,9.13,9.13,0,0,1-7.8-16.1,9.5,9.5,0,0,1,1.7-1,9.08,9.08,0,0,1,14.4-11,7.11,7.11,0,0,1,1.5-1.5,9,9,0,0,1,12.6,1.6l.1.1a9.1,9.1,0,0,1,.6,10,8.94,8.94,0,0,1,3.9,3,9.07,9.07,0,0,1-1.7,12.7,9.31,9.31,0,0,1-7.4,1.7,8.58,8.58,0,0,1-3.6,6.7,6.93,6.93,0,0,1-5.3,2Zm-8.3-9.3v.5a8.33,8.33,0,0,0,8.4,8.1,8.2,8.2,0,0,0,8.1-8.4h0v-.5l.5.1a8.24,8.24,0,0,0,4.7-15.8l-.5-.2.3-.5a8.22,8.22,0,0,0-11.8-11.1h0a7.28,7.28,0,0,0-1.7,1.8l-.3.5-.3-.5a8.25,8.25,0,0,0-11.6-1.3,8.17,8.17,0,0,0-1.5,11.2l.3.4-.5.2a8.3,8.3,0,0,0-4.9,10.6,8.19,8.19,0,0,0,10.3,5l.5-.1Z" transform="translate(-508.12 -353.19)"/></svg>