<svg id="圖層_1" data-name="圖層 1" xmlns="http://www.w3.org/2000/svg" viewBox="0 0 77.25 115.2"><defs><style>.cls-1{fill:#d1542e;}.cls-2{fill:#ecc655;}</style></defs><title>tea</title><path class="cls-1" d="M521.9,429.7a43.55,43.55,0,0,1-12.8-2.2c-11.9-3.8-20-11.5-18.2-17.1l12.3-68.5,61.7,20-31,62.5c-1.1,3.5-5.7,5.4-12,5.3Zm-18-86.6-12.2,67.6c-1.7,5.2,6.3,12.4,17.7,16.1s22,2.5,23.7-2.6l30.6-61.7Z" transform="translate(-490.65 -314.5)"/><path class="cls-1" d="M544.9,384.2a99.48,99.48,0,0,1-36.4-8.6c-3.3-1.6-7.1-4-6.6-6.2s5-2.5,8.7-2.5a86.84,86.84,0,0,1,18.2,2.6c12.3,3,24.9,8.2,24,12.1-.5,1.8-3.5,2.6-7.9,2.6Zm-35-16.5c-4.2,0-6.8.7-7.1,1.9s2,3.2,6.2,5.2a87.37,87.37,0,0,0,17.2,5.9c14.5,3.5,25.3,3.2,25.9.8s-8.9-7.6-23.4-11.1a84.07,84.07,0,0,0-18-2.6l-.8-.1Z" transform="translate(-490.65 -314.5)"/><path class="cls-2" d="M564.2,362.5c1.7-5.4-10.5-14.1-27.2-19.5s-31.7-5.5-33.5-.1S514,357,530.7,362.4,562.4,367.8,564.2,362.5Z" transform="translate(-490.65 -314.5)"/><path class="cls-1" d="M553.2,366.9h-.1c-6.4,0-14.3-1.5-22.5-4.1-17.2-5.6-29.3-14.4-27.5-20.1.9-2.8,4.9-4.3,11.4-4.3h.1c6.4,0,14.3,1.5,22.5,4.1s15.5,6.1,20.7,9.9,7.7,7.4,6.8,10.2S559.7,366.9,553.2,366.9Zm-38.7-27.7c-6,0-9.8,1.4-10.6,3.7-1.6,5.1,10.7,13.8,27,19,8.1,2.6,16,4.1,22.2,4.1h.1c6,0,9.8-1.4,10.6-3.7s-1.6-5.8-6.5-9.3c-5.1-3.7-12.4-7.1-20.4-9.7a79.67,79.67,0,0,0-22.2-4.1Z" transform="translate(-490.65 -314.5)"/><path class="cls-1" d="M523,414.8a12.66,12.66,0,0,1-3.9-1.2,18.21,18.21,0,0,1-2.7-1.5c-.7-.5-1.3-1-1-1.5L537.6,364l8.7,1.7-22.5,48.8A1,1,0,0,1,523,414.8Zm-6.8-4a15.5,15.5,0,0,0,3.2,2A10.92,10.92,0,0,0,523,414l22-47.7-7-1.4Z" transform="translate(-490.65 -314.5)"/><path class="cls-1" d="M548.7,359.3a5,5,0,0,1-1.2-.2,23.29,23.29,0,0,1-2.8-1.1c-4.2-1.9-3.9-2.6-3.8-2.9l18.7-40.6,8.3,3.9L549.2,359c0,.2-.3.3-.5.3Zm-6.9-4a13.5,13.5,0,0,0,3.3,1.9,14,14,0,0,0,3.6,1.3L567,318.8l-6.8-3.2Z" transform="translate(-490.65 -314.5)"/></svg>